ISO-10303-21;
HEADER;
/* Generated by software containing ST-Developer
 * from STEP Tools, Inc. (www.steptools.com) 
 */
/* OPTION: using custom renumber hook */

FILE_DESCRIPTION(
/* description */ ('STEP AP214'),
/* implementation_level */ '2;1');

FILE_NAME(
/* name */ 'AS1201F-M5-04A',
/* time_stamp */ '2026-09-03T03:30:11+02:00',
/* author */ ('License CC BY-ND 4.0'),
/* organization */ ('CADENAS'),
/* preprocessor_version */ 'ST-DEVELOPER v20',
/* originating_system */ 'PARTsolutions',
/* authorisation */ '  ');

FILE_SCHEMA (('AUTOMOTIVE_DESIGN {1 0 10303 214 3 1 1}'));
ENDSEC;

DATA;
#10=PROPERTY_DEFINITION_REPRESENTATION(#14,#12);
#11=PROPERTY_DEFINITION_REPRESENTATION(#15,#13);
#12=REPRESENTATION('',(#16),#1464);
#13=REPRESENTATION('',(#17),#1464);
#14=PROPERTY_DEFINITION('pmi validation property','',#1469);
#15=PROPERTY_DEFINITION('pmi validation property','',#1469);
#16=VALUE_REPRESENTATION_ITEM('number of annotations',COUNT_MEASURE(0.));
#17=VALUE_REPRESENTATION_ITEM('number of views',COUNT_MEASURE(0.));
#18=SHAPE_REPRESENTATION_RELATIONSHIP('','',#793,#19);
#19=ADVANCED_BREP_SHAPE_REPRESENTATION('',(#791),#1464);
#20=LINE('',#1293,#38);
#21=LINE('',#1298,#39);
#22=LINE('',#1303,#40);
#23=LINE('',#1308,#41);
#24=LINE('',#1313,#42);
#25=LINE('',#1318,#43);
#26=LINE('',#1323,#44);
#27=LINE('',#1325,#45);
#28=LINE('',#1329,#46);
#29=LINE('',#1331,#47);
#30=LINE('',#1335,#48);
#31=LINE('',#1337,#49);
#32=LINE('',#1341,#50);
#33=LINE('',#1343,#51);
#34=LINE('',#1347,#52);
#35=LINE('',#1349,#53);
#36=LINE('',#1353,#54);
#37=LINE('',#1355,#55);
#38=VECTOR('',#996,1000.);
#39=VECTOR('',#1001,1000.);
#40=VECTOR('',#1006,1000.);
#41=VECTOR('',#1011,1000.);
#42=VECTOR('',#1016,1000.);
#43=VECTOR('',#1021,1000.);
#44=VECTOR('',#1026,1000.);
#45=VECTOR('',#1027,1000.);
#46=VECTOR('',#1032,1000.);
#47=VECTOR('',#1033,1000.);
#48=VECTOR('',#1038,1000.);
#49=VECTOR('',#1039,1000.);
#50=VECTOR('',#1044,1000.);
#51=VECTOR('',#1045,1000.);
#52=VECTOR('',#1050,1000.);
#53=VECTOR('',#1051,1000.);
#54=VECTOR('',#1056,1000.);
#55=VECTOR('',#1057,1000.);
#56=PLANE('',#818);
#57=PLANE('',#822);
#58=PLANE('',#826);
#59=PLANE('',#830);
#60=PLANE('',#838);
#61=PLANE('',#839);
#62=PLANE('',#841);
#63=PLANE('',#843);
#64=PLANE('',#845);
#65=PLANE('',#847);
#66=PLANE('',#849);
#67=PLANE('',#863);
#68=PLANE('',#864);
#69=PLANE('',#865);
#70=PLANE('',#866);
#71=PLANE('',#867);
#72=PLANE('',#868);
#73=PLANE('',#869);
#74=PLANE('',#873);
#75=PLANE('',#877);
#76=PLANE('',#878);
#77=PLANE('',#887);
#78=PLANE('',#892);
#79=PLANE('',#896);
#80=PLANE('',#903);
#81=CYLINDRICAL_SURFACE('',#798,4.39999999999998);
#82=CYLINDRICAL_SURFACE('',#820,3.99999999999995);
#83=CYLINDRICAL_SURFACE('',#824,3.49999999999995);
#84=CYLINDRICAL_SURFACE('',#828,2.19999999999995);
#85=CYLINDRICAL_SURFACE('',#834,2.49999999999989);
#86=CYLINDRICAL_SURFACE('',#851,4.80000000000009);
#87=CYLINDRICAL_SURFACE('',#853,4.80000000000002);
#88=CYLINDRICAL_SURFACE('',#855,4.80000000000005);
#89=CYLINDRICAL_SURFACE('',#857,4.80000000000006);
#90=CYLINDRICAL_SURFACE('',#859,4.80000000000007);
#91=CYLINDRICAL_SURFACE('',#861,4.80000000000007);
#92=CYLINDRICAL_SURFACE('',#871,4.70000000000004);
#93=CYLINDRICAL_SURFACE('',#875,2.94999999999999);
#94=CYLINDRICAL_SURFACE('',#882,4.49999999999997);
#95=CYLINDRICAL_SURFACE('',#885,3.05000000000002);
#96=CYLINDRICAL_SURFACE('',#890,3.85000000000002);
#97=CYLINDRICAL_SURFACE('',#894,2.25000000000002);
#98=CYLINDRICAL_SURFACE('',#898,4.10000000000002);
#99=CYLINDRICAL_SURFACE('',#901,2.);
#100=B_SPLINE_CURVE_WITH_KNOTS('',3,(#1146,#1147,#1148,#1149),
 .UNSPECIFIED.,.F.,.F.,(4,4),(5.71861639610436E-5,0.00225205770952459),
 .UNSPECIFIED.);
#101=B_SPLINE_CURVE_WITH_KNOTS('',3,(#1154,#1155,#1156,#1157,#1158,#1159,
#1160,#1161,#1162,#1163,#1164),.UNSPECIFIED.,.F.,.F.,(4,1,1,1,1,1,1,1,4),
(1.74822347316868E-18,0.00110154717220014,0.00220309434440028,0.00330464151660041,
0.00440618868880055,0.00550773586100069,0.00660928303320082,0.00771083020540096,
0.0088123773776011),.UNSPECIFIED.);
#102=B_SPLINE_CURVE_WITH_KNOTS('',3,(#1166,#1167,#1168,#1169,#1170,#1171,
#1172,#1173,#1174,#1175),.UNSPECIFIED.,.F.,.F.,(4,1,1,1,1,1,1,4),(0.0088123773776011,
0.0110115158964106,0.0121110851558154,0.0132106544152202,0.0143102236746249,
0.0154097929340297,0.0165093621934345,0.0176089314528393),.UNSPECIFIED.);
#103=B_SPLINE_CURVE_WITH_KNOTS('',3,(#1181,#1182,#1183,#1184),
 .UNSPECIFIED.,.F.,.F.,(4,4),(0.00337842091082443,0.00505018753888091),
 .UNSPECIFIED.);
#104=B_SPLINE_CURVE_WITH_KNOTS('',3,(#1188,#1189,#1190,#1191),
 .UNSPECIFIED.,.F.,.F.,(4,4),(0.00167056024895664,0.00334088955780569),
 .UNSPECIFIED.);
#105=B_SPLINE_CURVE_WITH_KNOTS('',3,(#1195,#1196,#1197,#1198),
 .UNSPECIFIED.,.F.,.F.,(4,4),(0.00505018753888091,0.00671031818247744),
 .UNSPECIFIED.);
#106=B_SPLINE_CURVE_WITH_KNOTS('',3,(#1202,#1203,#1204,#1205),
 .UNSPECIFIED.,.F.,.F.,(4,4),(2.30940107676012E-7,0.00167056024895672),
 .UNSPECIFIED.);
#107=B_SPLINE_CURVE_WITH_KNOTS('',3,(#1209,#1210,#1211,#1212),
 .UNSPECIFIED.,.F.,.F.,(4,4),(0.00167056024895672,0.00334088955780569),
 .UNSPECIFIED.);
#108=B_SPLINE_CURVE_WITH_KNOTS('',3,(#1216,#1217,#1218,#1219),
 .UNSPECIFIED.,.F.,.F.,(4,4),(2.30940107675918E-7,0.00167056024895672),
 .UNSPECIFIED.);
#109=B_SPLINE_CURVE_WITH_KNOTS('',3,(#1223,#1224,#1225,#1226),
 .UNSPECIFIED.,.F.,.F.,(4,4),(0.00167056024895672,0.00334088955780569),
 .UNSPECIFIED.);
#110=B_SPLINE_CURVE_WITH_KNOTS('',3,(#1230,#1231,#1232,#1233),
 .UNSPECIFIED.,.F.,.F.,(4,4),(0.00337842091082444,0.00505018753888091),
 .UNSPECIFIED.);
#111=B_SPLINE_CURVE_WITH_KNOTS('',3,(#1237,#1238,#1239,#1240),
 .UNSPECIFIED.,.F.,.F.,(4,4),(0.00505018753888091,0.00671031818247745),
 .UNSPECIFIED.);
#112=B_SPLINE_CURVE_WITH_KNOTS('',3,(#1244,#1245,#1246,#1247),
 .UNSPECIFIED.,.F.,.F.,(4,4),(2.30940107676012E-7,0.00167056024895664),
 .UNSPECIFIED.);
#113=B_SPLINE_CURVE_WITH_KNOTS('',3,(#1250,#1251,#1252,#1253),
 .UNSPECIFIED.,.F.,.F.,(4,4),(0.00167056024895664,0.0033408895578057),
 .UNSPECIFIED.);
#114=B_SPLINE_CURVE_WITH_KNOTS('',3,(#1257,#1258,#1259,#1260),
 .UNSPECIFIED.,.F.,.F.,(4,4),(2.30940107675918E-7,0.00167056024895664),
 .UNSPECIFIED.);
#115=B_SPLINE_CURVE_WITH_KNOTS('',3,(#1359,#1360,#1361,#1362),
 .UNSPECIFIED.,.F.,.F.,(4,4),(0.0029803204802394,0.00334135861769801),
 .UNSPECIFIED.);
#116=B_SPLINE_CURVE_WITH_KNOTS('',3,(#1363,#1364,#1365,#1366),
 .UNSPECIFIED.,.F.,.F.,(4,4),(6.99999999999963E-7,0.000361738137458688),
 .UNSPECIFIED.);
#117=B_SPLINE_CURVE_WITH_KNOTS('',3,(#1368,#1369,#1370,#1371),
 .UNSPECIFIED.,.F.,.F.,(4,4),(0.00298042877061617,0.00334146690807488),
 .UNSPECIFIED.);
#118=B_SPLINE_CURVE_WITH_KNOTS('',3,(#1372,#1373,#1374,#1375),
 .UNSPECIFIED.,.F.,.F.,(4,4),(8.08290376865043E-7,0.000361846427835556),
 .UNSPECIFIED.);
#119=B_SPLINE_CURVE_WITH_KNOTS('',3,(#1377,#1378,#1379,#1380),
 .UNSPECIFIED.,.F.,.F.,(4,4),(0.00298042877061625,0.00334146690807488),
 .UNSPECIFIED.);
#120=B_SPLINE_CURVE_WITH_KNOTS('',3,(#1381,#1382,#1383,#1384),
 .UNSPECIFIED.,.F.,.F.,(4,4),(8.08290376865636E-7,0.000361846427835406),
 .UNSPECIFIED.);
#121=B_SPLINE_CURVE_WITH_KNOTS('',3,(#1386,#1387,#1388,#1389),
 .UNSPECIFIED.,.F.,.F.,(4,4),(0.00298032048023956,0.00334135861769802),
 .UNSPECIFIED.);
#122=B_SPLINE_CURVE_WITH_KNOTS('',3,(#1390,#1391,#1392,#1393),
 .UNSPECIFIED.,.F.,.F.,(4,4),(6.99999999999963E-7,0.000361738137458381),
 .UNSPECIFIED.);
#123=B_SPLINE_CURVE_WITH_KNOTS('',3,(#1395,#1396,#1397,#1398),
 .UNSPECIFIED.,.F.,.F.,(4,4),(0.00298042877061653,0.00334146690807488),
 .UNSPECIFIED.);
#124=B_SPLINE_CURVE_WITH_KNOTS('',3,(#1399,#1400,#1401,#1402),
 .UNSPECIFIED.,.F.,.F.,(4,4),(8.08290376865853E-7,0.000361846427835239),
 .UNSPECIFIED.);
#125=B_SPLINE_CURVE_WITH_KNOTS('',3,(#1404,#1405,#1406,#1407),
 .UNSPECIFIED.,.F.,.F.,(4,4),(0.00298042877061645,0.00334146690807488),
 .UNSPECIFIED.);
#126=B_SPLINE_CURVE_WITH_KNOTS('',3,(#1408,#1409,#1410,#1411),
 .UNSPECIFIED.,.F.,.F.,(4,4),(8.08290376865636E-7,0.000361846427835391),
 .UNSPECIFIED.);
#127=ORIENTED_EDGE('',*,*,#323,.T.);
#128=ORIENTED_EDGE('',*,*,#324,.F.);
#129=ORIENTED_EDGE('',*,*,#325,.F.);
#130=ORIENTED_EDGE('',*,*,#326,.F.);
#131=ORIENTED_EDGE('',*,*,#325,.T.);
#132=ORIENTED_EDGE('',*,*,#327,.F.);
#133=ORIENTED_EDGE('',*,*,#328,.F.);
#134=ORIENTED_EDGE('',*,*,#329,.T.);
#135=ORIENTED_EDGE('',*,*,#330,.T.);
#136=ORIENTED_EDGE('',*,*,#331,.F.);
#137=ORIENTED_EDGE('',*,*,#332,.T.);
#138=ORIENTED_EDGE('',*,*,#333,.F.);
#139=ORIENTED_EDGE('',*,*,#334,.T.);
#140=ORIENTED_EDGE('',*,*,#335,.T.);
#141=ORIENTED_EDGE('',*,*,#336,.T.);
#142=ORIENTED_EDGE('',*,*,#337,.F.);
#143=ORIENTED_EDGE('',*,*,#338,.T.);
#144=ORIENTED_EDGE('',*,*,#339,.T.);
#145=ORIENTED_EDGE('',*,*,#340,.T.);
#146=ORIENTED_EDGE('',*,*,#341,.F.);
#147=ORIENTED_EDGE('',*,*,#342,.T.);
#148=ORIENTED_EDGE('',*,*,#343,.T.);
#149=ORIENTED_EDGE('',*,*,#344,.T.);
#150=ORIENTED_EDGE('',*,*,#345,.F.);
#151=ORIENTED_EDGE('',*,*,#346,.T.);
#152=ORIENTED_EDGE('',*,*,#347,.T.);
#153=ORIENTED_EDGE('',*,*,#348,.T.);
#154=ORIENTED_EDGE('',*,*,#349,.F.);
#155=ORIENTED_EDGE('',*,*,#350,.T.);
#156=ORIENTED_EDGE('',*,*,#351,.T.);
#157=ORIENTED_EDGE('',*,*,#352,.T.);
#158=ORIENTED_EDGE('',*,*,#353,.F.);
#159=ORIENTED_EDGE('',*,*,#345,.T.);
#160=ORIENTED_EDGE('',*,*,#349,.T.);
#161=ORIENTED_EDGE('',*,*,#331,.T.);
#162=ORIENTED_EDGE('',*,*,#333,.T.);
#163=ORIENTED_EDGE('',*,*,#337,.T.);
#164=ORIENTED_EDGE('',*,*,#341,.T.);
#165=ORIENTED_EDGE('',*,*,#354,.F.);
#166=ORIENTED_EDGE('',*,*,#353,.T.);
#167=ORIENTED_EDGE('',*,*,#355,.F.);
#168=ORIENTED_EDGE('',*,*,#354,.T.);
#169=ORIENTED_EDGE('',*,*,#356,.F.);
#170=ORIENTED_EDGE('',*,*,#355,.T.);
#171=ORIENTED_EDGE('',*,*,#357,.F.);
#172=ORIENTED_EDGE('',*,*,#356,.T.);
#173=ORIENTED_EDGE('',*,*,#358,.F.);
#174=ORIENTED_EDGE('',*,*,#357,.T.);
#175=ORIENTED_EDGE('',*,*,#359,.F.);
#176=ORIENTED_EDGE('',*,*,#358,.T.);
#177=ORIENTED_EDGE('',*,*,#360,.F.);
#178=ORIENTED_EDGE('',*,*,#359,.T.);
#179=ORIENTED_EDGE('',*,*,#361,.F.);
#180=ORIENTED_EDGE('',*,*,#360,.T.);
#181=ORIENTED_EDGE('',*,*,#362,.F.);
#182=ORIENTED_EDGE('',*,*,#361,.T.);
#183=ORIENTED_EDGE('',*,*,#362,.T.);
#184=ORIENTED_EDGE('',*,*,#363,.T.);
#185=ORIENTED_EDGE('',*,*,#364,.F.);
#186=ORIENTED_EDGE('',*,*,#365,.T.);
#187=ORIENTED_EDGE('',*,*,#366,.F.);
#188=ORIENTED_EDGE('',*,*,#367,.T.);
#189=ORIENTED_EDGE('',*,*,#368,.F.);
#190=ORIENTED_EDGE('',*,*,#369,.T.);
#191=ORIENTED_EDGE('',*,*,#370,.F.);
#192=ORIENTED_EDGE('',*,*,#371,.T.);
#193=ORIENTED_EDGE('',*,*,#372,.F.);
#194=ORIENTED_EDGE('',*,*,#373,.T.);
#195=ORIENTED_EDGE('',*,*,#374,.F.);
#196=ORIENTED_EDGE('',*,*,#375,.T.);
#197=ORIENTED_EDGE('',*,*,#335,.F.);
#198=ORIENTED_EDGE('',*,*,#376,.F.);
#199=ORIENTED_EDGE('',*,*,#377,.F.);
#200=ORIENTED_EDGE('',*,*,#378,.T.);
#201=ORIENTED_EDGE('',*,*,#339,.F.);
#202=ORIENTED_EDGE('',*,*,#379,.F.);
#203=ORIENTED_EDGE('',*,*,#380,.F.);
#204=ORIENTED_EDGE('',*,*,#381,.T.);
#205=ORIENTED_EDGE('',*,*,#343,.F.);
#206=ORIENTED_EDGE('',*,*,#382,.F.);
#207=ORIENTED_EDGE('',*,*,#383,.F.);
#208=ORIENTED_EDGE('',*,*,#384,.T.);
#209=ORIENTED_EDGE('',*,*,#347,.F.);
#210=ORIENTED_EDGE('',*,*,#385,.F.);
#211=ORIENTED_EDGE('',*,*,#386,.F.);
#212=ORIENTED_EDGE('',*,*,#387,.T.);
#213=ORIENTED_EDGE('',*,*,#351,.F.);
#214=ORIENTED_EDGE('',*,*,#388,.F.);
#215=ORIENTED_EDGE('',*,*,#389,.F.);
#216=ORIENTED_EDGE('',*,*,#390,.T.);
#217=ORIENTED_EDGE('',*,*,#329,.F.);
#218=ORIENTED_EDGE('',*,*,#391,.F.);
#219=ORIENTED_EDGE('',*,*,#392,.F.);
#220=ORIENTED_EDGE('',*,*,#376,.T.);
#221=ORIENTED_EDGE('',*,*,#334,.F.);
#222=ORIENTED_EDGE('',*,*,#330,.F.);
#223=ORIENTED_EDGE('',*,*,#390,.F.);
#224=ORIENTED_EDGE('',*,*,#393,.F.);
#225=ORIENTED_EDGE('',*,*,#371,.F.);
#226=ORIENTED_EDGE('',*,*,#394,.F.);
#227=ORIENTED_EDGE('',*,*,#379,.T.);
#228=ORIENTED_EDGE('',*,*,#338,.F.);
#229=ORIENTED_EDGE('',*,*,#336,.F.);
#230=ORIENTED_EDGE('',*,*,#375,.F.);
#231=ORIENTED_EDGE('',*,*,#395,.F.);
#232=ORIENTED_EDGE('',*,*,#369,.F.);
#233=ORIENTED_EDGE('',*,*,#396,.F.);
#234=ORIENTED_EDGE('',*,*,#382,.T.);
#235=ORIENTED_EDGE('',*,*,#342,.F.);
#236=ORIENTED_EDGE('',*,*,#340,.F.);
#237=ORIENTED_EDGE('',*,*,#378,.F.);
#238=ORIENTED_EDGE('',*,*,#397,.F.);
#239=ORIENTED_EDGE('',*,*,#367,.F.);
#240=ORIENTED_EDGE('',*,*,#398,.F.);
#241=ORIENTED_EDGE('',*,*,#385,.T.);
#242=ORIENTED_EDGE('',*,*,#346,.F.);
#243=ORIENTED_EDGE('',*,*,#344,.F.);
#244=ORIENTED_EDGE('',*,*,#381,.F.);
#245=ORIENTED_EDGE('',*,*,#399,.F.);
#246=ORIENTED_EDGE('',*,*,#365,.F.);
#247=ORIENTED_EDGE('',*,*,#400,.F.);
#248=ORIENTED_EDGE('',*,*,#388,.T.);
#249=ORIENTED_EDGE('',*,*,#350,.F.);
#250=ORIENTED_EDGE('',*,*,#348,.F.);
#251=ORIENTED_EDGE('',*,*,#384,.F.);
#252=ORIENTED_EDGE('',*,*,#401,.F.);
#253=ORIENTED_EDGE('',*,*,#363,.F.);
#254=ORIENTED_EDGE('',*,*,#402,.F.);
#255=ORIENTED_EDGE('',*,*,#391,.T.);
#256=ORIENTED_EDGE('',*,*,#332,.F.);
#257=ORIENTED_EDGE('',*,*,#352,.F.);
#258=ORIENTED_EDGE('',*,*,#387,.F.);
#259=ORIENTED_EDGE('',*,*,#403,.F.);
#260=ORIENTED_EDGE('',*,*,#373,.F.);
#261=ORIENTED_EDGE('',*,*,#404,.F.);
#262=ORIENTED_EDGE('',*,*,#405,.F.);
#263=ORIENTED_EDGE('',*,*,#405,.T.);
#264=ORIENTED_EDGE('',*,*,#406,.F.);
#265=ORIENTED_EDGE('',*,*,#407,.T.);
#266=ORIENTED_EDGE('',*,*,#406,.T.);
#267=ORIENTED_EDGE('',*,*,#408,.F.);
#268=ORIENTED_EDGE('',*,*,#407,.F.);
#269=ORIENTED_EDGE('',*,*,#323,.F.);
#270=ORIENTED_EDGE('',*,*,#408,.T.);
#271=ORIENTED_EDGE('',*,*,#328,.T.);
#272=ORIENTED_EDGE('',*,*,#409,.F.);
#273=ORIENTED_EDGE('',*,*,#410,.F.);
#274=ORIENTED_EDGE('',*,*,#409,.T.);
#275=ORIENTED_EDGE('',*,*,#411,.F.);
#276=ORIENTED_EDGE('',*,*,#410,.T.);
#277=ORIENTED_EDGE('',*,*,#370,.T.);
#278=ORIENTED_EDGE('',*,*,#395,.T.);
#279=ORIENTED_EDGE('',*,*,#377,.T.);
#280=ORIENTED_EDGE('',*,*,#394,.T.);
#281=ORIENTED_EDGE('',*,*,#372,.T.);
#282=ORIENTED_EDGE('',*,*,#393,.T.);
#283=ORIENTED_EDGE('',*,*,#392,.T.);
#284=ORIENTED_EDGE('',*,*,#404,.T.);
#285=ORIENTED_EDGE('',*,*,#374,.T.);
#286=ORIENTED_EDGE('',*,*,#403,.T.);
#287=ORIENTED_EDGE('',*,*,#389,.T.);
#288=ORIENTED_EDGE('',*,*,#402,.T.);
#289=ORIENTED_EDGE('',*,*,#364,.T.);
#290=ORIENTED_EDGE('',*,*,#401,.T.);
#291=ORIENTED_EDGE('',*,*,#386,.T.);
#292=ORIENTED_EDGE('',*,*,#400,.T.);
#293=ORIENTED_EDGE('',*,*,#366,.T.);
#294=ORIENTED_EDGE('',*,*,#399,.T.);
#295=ORIENTED_EDGE('',*,*,#383,.T.);
#296=ORIENTED_EDGE('',*,*,#398,.T.);
#297=ORIENTED_EDGE('',*,*,#368,.T.);
#298=ORIENTED_EDGE('',*,*,#397,.T.);
#299=ORIENTED_EDGE('',*,*,#380,.T.);
#300=ORIENTED_EDGE('',*,*,#396,.T.);
#301=ORIENTED_EDGE('',*,*,#411,.T.);
#302=ORIENTED_EDGE('',*,*,#412,.T.);
#303=ORIENTED_EDGE('',*,*,#324,.T.);
#304=ORIENTED_EDGE('',*,*,#326,.T.);
#305=ORIENTED_EDGE('',*,*,#327,.T.);
#306=ORIENTED_EDGE('',*,*,#413,.T.);
#307=ORIENTED_EDGE('',*,*,#414,.F.);
#308=ORIENTED_EDGE('',*,*,#415,.F.);
#309=ORIENTED_EDGE('',*,*,#414,.T.);
#310=ORIENTED_EDGE('',*,*,#416,.F.);
#311=ORIENTED_EDGE('',*,*,#415,.T.);
#312=ORIENTED_EDGE('',*,*,#417,.F.);
#313=ORIENTED_EDGE('',*,*,#416,.T.);
#314=ORIENTED_EDGE('',*,*,#418,.F.);
#315=ORIENTED_EDGE('',*,*,#417,.T.);
#316=ORIENTED_EDGE('',*,*,#419,.F.);
#317=ORIENTED_EDGE('',*,*,#418,.T.);
#318=ORIENTED_EDGE('',*,*,#412,.F.);
#319=ORIENTED_EDGE('',*,*,#419,.T.);
#320=ORIENTED_EDGE('',*,*,#420,.T.);
#321=ORIENTED_EDGE('',*,*,#413,.F.);
#322=ORIENTED_EDGE('',*,*,#420,.F.);
#323=EDGE_CURVE('',#421,#421,#493,.T.);
#324=EDGE_CURVE('',#422,#423,#100,.T.);
#325=EDGE_CURVE('',#423,#422,#494,.T.);
#326=EDGE_CURVE('',#423,#424,#101,.T.);
#327=EDGE_CURVE('',#424,#422,#102,.T.);
#328=EDGE_CURVE('',#424,#424,#495,.T.);
#329=EDGE_CURVE('',#425,#426,#496,.F.);
#330=EDGE_CURVE('',#426,#427,#103,.T.);
#331=EDGE_CURVE('',#428,#427,#497,.T.);
#332=EDGE_CURVE('',#428,#425,#104,.T.);
#333=EDGE_CURVE('',#427,#429,#498,.T.);
#334=EDGE_CURVE('',#427,#430,#105,.T.);
#335=EDGE_CURVE('',#430,#431,#499,.F.);
#336=EDGE_CURVE('',#431,#429,#106,.T.);
#337=EDGE_CURVE('',#429,#432,#500,.T.);
#338=EDGE_CURVE('',#429,#433,#107,.T.);
#339=EDGE_CURVE('',#433,#434,#501,.F.);
#340=EDGE_CURVE('',#434,#432,#108,.T.);
#341=EDGE_CURVE('',#432,#435,#502,.T.);
#342=EDGE_CURVE('',#432,#436,#109,.T.);
#343=EDGE_CURVE('',#436,#437,#503,.F.);
#344=EDGE_CURVE('',#437,#435,#110,.T.);
#345=EDGE_CURVE('',#435,#438,#504,.T.);
#346=EDGE_CURVE('',#435,#439,#111,.T.);
#347=EDGE_CURVE('',#439,#440,#505,.F.);
#348=EDGE_CURVE('',#440,#438,#112,.T.);
#349=EDGE_CURVE('',#438,#428,#506,.T.);
#350=EDGE_CURVE('',#438,#441,#113,.T.);
#351=EDGE_CURVE('',#441,#442,#507,.F.);
#352=EDGE_CURVE('',#442,#428,#114,.T.);
#353=EDGE_CURVE('',#443,#443,#508,.T.);
#354=EDGE_CURVE('',#444,#444,#509,.T.);
#355=EDGE_CURVE('',#445,#445,#510,.T.);
#356=EDGE_CURVE('',#446,#446,#511,.T.);
#357=EDGE_CURVE('',#447,#447,#512,.T.);
#358=EDGE_CURVE('',#448,#448,#513,.T.);
#359=EDGE_CURVE('',#449,#449,#514,.T.);
#360=EDGE_CURVE('',#450,#450,#515,.T.);
#361=EDGE_CURVE('',#451,#451,#516,.T.);
#362=EDGE_CURVE('',#452,#452,#517,.T.);
#363=EDGE_CURVE('',#453,#454,#20,.T.);
#364=EDGE_CURVE('',#453,#454,#518,.T.);
#365=EDGE_CURVE('',#455,#456,#21,.T.);
#366=EDGE_CURVE('',#455,#456,#519,.T.);
#367=EDGE_CURVE('',#457,#458,#22,.T.);
#368=EDGE_CURVE('',#457,#458,#520,.T.);
#369=EDGE_CURVE('',#459,#460,#23,.T.);
#370=EDGE_CURVE('',#459,#460,#521,.T.);
#371=EDGE_CURVE('',#461,#462,#24,.T.);
#372=EDGE_CURVE('',#461,#462,#522,.T.);
#373=EDGE_CURVE('',#463,#464,#25,.T.);
#374=EDGE_CURVE('',#463,#464,#523,.T.);
#375=EDGE_CURVE('',#465,#431,#26,.T.);
#376=EDGE_CURVE('',#466,#430,#27,.T.);
#377=EDGE_CURVE('',#465,#466,#524,.F.);
#378=EDGE_CURVE('',#467,#434,#28,.T.);
#379=EDGE_CURVE('',#468,#433,#29,.T.);
#380=EDGE_CURVE('',#467,#468,#525,.F.);
#381=EDGE_CURVE('',#469,#437,#30,.T.);
#382=EDGE_CURVE('',#470,#436,#31,.T.);
#383=EDGE_CURVE('',#469,#470,#526,.F.);
#384=EDGE_CURVE('',#471,#440,#32,.T.);
#385=EDGE_CURVE('',#472,#439,#33,.T.);
#386=EDGE_CURVE('',#471,#472,#527,.F.);
#387=EDGE_CURVE('',#473,#442,#34,.T.);
#388=EDGE_CURVE('',#474,#441,#35,.T.);
#389=EDGE_CURVE('',#473,#474,#528,.F.);
#390=EDGE_CURVE('',#475,#426,#36,.T.);
#391=EDGE_CURVE('',#476,#425,#37,.T.);
#392=EDGE_CURVE('',#475,#476,#529,.F.);
#393=EDGE_CURVE('',#462,#475,#115,.T.);
#394=EDGE_CURVE('',#466,#461,#116,.T.);
#395=EDGE_CURVE('',#460,#465,#117,.T.);
#396=EDGE_CURVE('',#468,#459,#118,.T.);
#397=EDGE_CURVE('',#458,#467,#119,.T.);
#398=EDGE_CURVE('',#470,#457,#120,.T.);
#399=EDGE_CURVE('',#456,#469,#121,.T.);
#400=EDGE_CURVE('',#472,#455,#122,.T.);
#401=EDGE_CURVE('',#454,#471,#123,.T.);
#402=EDGE_CURVE('',#474,#453,#124,.T.);
#403=EDGE_CURVE('',#464,#473,#125,.T.);
#404=EDGE_CURVE('',#476,#463,#126,.T.);
#405=EDGE_CURVE('',#477,#477,#530,.T.);
#406=EDGE_CURVE('',#478,#478,#531,.T.);
#407=EDGE_CURVE('',#479,#479,#532,.T.);
#408=EDGE_CURVE('',#480,#480,#533,.T.);
#409=EDGE_CURVE('',#481,#481,#534,.T.);
#410=EDGE_CURVE('',#482,#482,#535,.T.);
#411=EDGE_CURVE('',#483,#483,#536,.T.);
#412=EDGE_CURVE('',#484,#484,#537,.T.);
#413=EDGE_CURVE('',#485,#485,#538,.T.);
#414=EDGE_CURVE('',#486,#486,#539,.T.);
#415=EDGE_CURVE('',#487,#487,#540,.T.);
#416=EDGE_CURVE('',#488,#488,#541,.T.);
#417=EDGE_CURVE('',#489,#489,#542,.T.);
#418=EDGE_CURVE('',#490,#490,#543,.T.);
#419=EDGE_CURVE('',#491,#491,#544,.T.);
#420=EDGE_CURVE('',#492,#492,#545,.T.);
#421=VERTEX_POINT('',#1145);
#422=VERTEX_POINT('',#1150);
#423=VERTEX_POINT('',#1151);
#424=VERTEX_POINT('',#1165);
#425=VERTEX_POINT('',#1179);
#426=VERTEX_POINT('',#1180);
#427=VERTEX_POINT('',#1185);
#428=VERTEX_POINT('',#1187);
#429=VERTEX_POINT('',#1194);
#430=VERTEX_POINT('',#1199);
#431=VERTEX_POINT('',#1201);
#432=VERTEX_POINT('',#1208);
#433=VERTEX_POINT('',#1213);
#434=VERTEX_POINT('',#1215);
#435=VERTEX_POINT('',#1222);
#436=VERTEX_POINT('',#1227);
#437=VERTEX_POINT('',#1229);
#438=VERTEX_POINT('',#1236);
#439=VERTEX_POINT('',#1241);
#440=VERTEX_POINT('',#1243);
#441=VERTEX_POINT('',#1254);
#442=VERTEX_POINT('',#1256);
#443=VERTEX_POINT('',#1263);
#444=VERTEX_POINT('',#1266);
#445=VERTEX_POINT('',#1269);
#446=VERTEX_POINT('',#1272);
#447=VERTEX_POINT('',#1275);
#448=VERTEX_POINT('',#1278);
#449=VERTEX_POINT('',#1281);
#450=VERTEX_POINT('',#1284);
#451=VERTEX_POINT('',#1287);
#452=VERTEX_POINT('',#1290);
#453=VERTEX_POINT('',#1294);
#454=VERTEX_POINT('',#1295);
#455=VERTEX_POINT('',#1299);
#456=VERTEX_POINT('',#1300);
#457=VERTEX_POINT('',#1304);
#458=VERTEX_POINT('',#1305);
#459=VERTEX_POINT('',#1309);
#460=VERTEX_POINT('',#1310);
#461=VERTEX_POINT('',#1314);
#462=VERTEX_POINT('',#1315);
#463=VERTEX_POINT('',#1319);
#464=VERTEX_POINT('',#1320);
#465=VERTEX_POINT('',#1324);
#466=VERTEX_POINT('',#1326);
#467=VERTEX_POINT('',#1330);
#468=VERTEX_POINT('',#1332);
#469=VERTEX_POINT('',#1336);
#470=VERTEX_POINT('',#1338);
#471=VERTEX_POINT('',#1342);
#472=VERTEX_POINT('',#1344);
#473=VERTEX_POINT('',#1348);
#474=VERTEX_POINT('',#1350);
#475=VERTEX_POINT('',#1354);
#476=VERTEX_POINT('',#1356);
#477=VERTEX_POINT('',#1414);
#478=VERTEX_POINT('',#1417);
#479=VERTEX_POINT('',#1420);
#480=VERTEX_POINT('',#1423);
#481=VERTEX_POINT('',#1427);
#482=VERTEX_POINT('',#1430);
#483=VERTEX_POINT('',#1433);
#484=VERTEX_POINT('',#1437);
#485=VERTEX_POINT('',#1440);
#486=VERTEX_POINT('',#1442);
#487=VERTEX_POINT('',#1445);
#488=VERTEX_POINT('',#1448);
#489=VERTEX_POINT('',#1451);
#490=VERTEX_POINT('',#1454);
#491=VERTEX_POINT('',#1457);
#492=VERTEX_POINT('',#1461);
#493=CIRCLE('',#796,3.89999999999999);
#494=CIRCLE('',#797,4.39999999999999);
#495=CIRCLE('',#799,4.39999999999997);
#496=CIRCLE('',#801,4.80000000000007);
#497=CIRCLE('',#802,4.49999999999996);
#498=CIRCLE('',#804,4.49999999999996);
#499=CIRCLE('',#805,4.80000000000009);
#500=CIRCLE('',#807,4.49999999999996);
#501=CIRCLE('',#808,4.80000000000002);
#502=CIRCLE('',#810,4.49999999999996);
#503=CIRCLE('',#811,4.80000000000005);
#504=CIRCLE('',#813,4.49999999999996);
#505=CIRCLE('',#814,4.80000000000006);
#506=CIRCLE('',#816,4.49999999999996);
#507=CIRCLE('',#817,4.80000000000007);
#508=CIRCLE('',#819,3.99999999999995);
#509=CIRCLE('',#821,3.99999999999995);
#510=CIRCLE('',#823,3.49999999999995);
#511=CIRCLE('',#825,3.49999999999995);
#512=CIRCLE('',#827,2.19999999999995);
#513=CIRCLE('',#829,2.19999999999995);
#514=CIRCLE('',#831,2.00950000000001);
#515=CIRCLE('',#833,2.49999999999989);
#516=CIRCLE('',#835,2.49999999999989);
#517=CIRCLE('',#837,2.0095);
#518=CIRCLE('',#840,4.68660254037838);
#519=CIRCLE('',#842,4.68660254037838);
#520=CIRCLE('',#844,4.68660254037838);
#521=CIRCLE('',#846,4.68660254037838);
#522=CIRCLE('',#848,4.68660254037838);
#523=CIRCLE('',#850,4.68660254037838);
#524=CIRCLE('',#852,4.80000000000009);
#525=CIRCLE('',#854,4.80000000000002);
#526=CIRCLE('',#856,4.80000000000005);
#527=CIRCLE('',#858,4.80000000000006);
#528=CIRCLE('',#860,4.80000000000007);
#529=CIRCLE('',#862,4.80000000000007);
#530=CIRCLE('',#870,4.70000000000005);
#531=CIRCLE('',#872,4.70000000000003);
#532=CIRCLE('',#874,2.94999999999999);
#533=CIRCLE('',#876,2.95);
#534=CIRCLE('',#879,4.3);
#535=CIRCLE('',#881,4.49999999999997);
#536=CIRCLE('',#883,4.49999999999997);
#537=CIRCLE('',#886,3.05000000000002);
#538=CIRCLE('',#888,2.);
#539=CIRCLE('',#889,3.85000000000002);
#540=CIRCLE('',#891,3.85000000000002);
#541=CIRCLE('',#893,2.25000000000002);
#542=CIRCLE('',#895,2.25000000000002);
#543=CIRCLE('',#897,4.10000000000002);
#544=CIRCLE('',#899,4.10000000000002);
#545=CIRCLE('',#902,2.);
#546=EDGE_LOOP('',(#127));
#547=EDGE_LOOP('',(#128,#129));
#548=EDGE_LOOP('',(#130,#131,#132,#133));
#549=EDGE_LOOP('',(#134,#135,#136,#137));
#550=EDGE_LOOP('',(#138,#139,#140,#141));
#551=EDGE_LOOP('',(#142,#143,#144,#145));
#552=EDGE_LOOP('',(#146,#147,#148,#149));
#553=EDGE_LOOP('',(#150,#151,#152,#153));
#554=EDGE_LOOP('',(#154,#155,#156,#157));
#555=EDGE_LOOP('',(#158));
#556=EDGE_LOOP('',(#159,#160,#161,#162,#163,#164));
#557=EDGE_LOOP('',(#165));
#558=EDGE_LOOP('',(#166));
#559=EDGE_LOOP('',(#167));
#560=EDGE_LOOP('',(#168));
#561=EDGE_LOOP('',(#169));
#562=EDGE_LOOP('',(#170));
#563=EDGE_LOOP('',(#171));
#564=EDGE_LOOP('',(#172));
#565=EDGE_LOOP('',(#173));
#566=EDGE_LOOP('',(#174));
#567=EDGE_LOOP('',(#175));
#568=EDGE_LOOP('',(#176));
#569=EDGE_LOOP('',(#177));
#570=EDGE_LOOP('',(#178));
#571=EDGE_LOOP('',(#179));
#572=EDGE_LOOP('',(#180));
#573=EDGE_LOOP('',(#181));
#574=EDGE_LOOP('',(#182));
#575=EDGE_LOOP('',(#183));
#576=EDGE_LOOP('',(#184,#185));
#577=EDGE_LOOP('',(#186,#187));
#578=EDGE_LOOP('',(#188,#189));
#579=EDGE_LOOP('',(#190,#191));
#580=EDGE_LOOP('',(#192,#193));
#581=EDGE_LOOP('',(#194,#195));
#582=EDGE_LOOP('',(#196,#197,#198,#199));
#583=EDGE_LOOP('',(#200,#201,#202,#203));
#584=EDGE_LOOP('',(#204,#205,#206,#207));
#585=EDGE_LOOP('',(#208,#209,#210,#211));
#586=EDGE_LOOP('',(#212,#213,#214,#215));
#587=EDGE_LOOP('',(#216,#217,#218,#219));
#588=EDGE_LOOP('',(#220,#221,#222,#223,#224,#225,#226));
#589=EDGE_LOOP('',(#227,#228,#229,#230,#231,#232,#233));
#590=EDGE_LOOP('',(#234,#235,#236,#237,#238,#239,#240));
#591=EDGE_LOOP('',(#241,#242,#243,#244,#245,#246,#247));
#592=EDGE_LOOP('',(#248,#249,#250,#251,#252,#253,#254));
#593=EDGE_LOOP('',(#255,#256,#257,#258,#259,#260,#261));
#594=EDGE_LOOP('',(#262));
#595=EDGE_LOOP('',(#263));
#596=EDGE_LOOP('',(#264));
#597=EDGE_LOOP('',(#265));
#598=EDGE_LOOP('',(#266));
#599=EDGE_LOOP('',(#267));
#600=EDGE_LOOP('',(#268));
#601=EDGE_LOOP('',(#269));
#602=EDGE_LOOP('',(#270));
#603=EDGE_LOOP('',(#271));
#604=EDGE_LOOP('',(#272));
#605=EDGE_LOOP('',(#273));
#606=EDGE_LOOP('',(#274));
#607=EDGE_LOOP('',(#275));
#608=EDGE_LOOP('',(#276));
#609=EDGE_LOOP('',(#277,#278,#279,#280,#281,#282,#283,#284,#285,#286,#287,
#288,#289,#290,#291,#292,#293,#294,#295,#296,#297,#298,#299,#300));
#610=EDGE_LOOP('',(#301));
#611=EDGE_LOOP('',(#302));
#612=EDGE_LOOP('',(#303,#304,#305));
#613=EDGE_LOOP('',(#306));
#614=EDGE_LOOP('',(#307));
#615=EDGE_LOOP('',(#308));
#616=EDGE_LOOP('',(#309));
#617=EDGE_LOOP('',(#310));
#618=EDGE_LOOP('',(#311));
#619=EDGE_LOOP('',(#312));
#620=EDGE_LOOP('',(#313));
#621=EDGE_LOOP('',(#314));
#622=EDGE_LOOP('',(#315));
#623=EDGE_LOOP('',(#316));
#624=EDGE_LOOP('',(#317));
#625=EDGE_LOOP('',(#318));
#626=EDGE_LOOP('',(#319));
#627=EDGE_LOOP('',(#320));
#628=EDGE_LOOP('',(#321));
#629=EDGE_LOOP('',(#322));
#630=FACE_BOUND('',#546,.T.);
#631=FACE_BOUND('',#547,.T.);
#632=FACE_BOUND('',#548,.T.);
#633=FACE_BOUND('',#549,.T.);
#634=FACE_BOUND('',#550,.T.);
#635=FACE_BOUND('',#551,.T.);
#636=FACE_BOUND('',#552,.T.);
#637=FACE_BOUND('',#553,.T.);
#638=FACE_BOUND('',#554,.T.);
#639=FACE_BOUND('',#555,.T.);
#640=FACE_BOUND('',#556,.T.);
#641=FACE_BOUND('',#557,.T.);
#642=FACE_BOUND('',#558,.T.);
#643=FACE_BOUND('',#559,.T.);
#644=FACE_BOUND('',#560,.T.);
#645=FACE_BOUND('',#561,.T.);
#646=FACE_BOUND('',#562,.T.);
#647=FACE_BOUND('',#563,.T.);
#648=FACE_BOUND('',#564,.T.);
#649=FACE_BOUND('',#565,.T.);
#650=FACE_BOUND('',#566,.T.);
#651=FACE_BOUND('',#567,.T.);
#652=FACE_BOUND('',#568,.T.);
#653=FACE_BOUND('',#569,.T.);
#654=FACE_BOUND('',#570,.T.);
#655=FACE_BOUND('',#571,.T.);
#656=FACE_BOUND('',#572,.T.);
#657=FACE_BOUND('',#573,.T.);
#658=FACE_BOUND('',#574,.T.);
#659=FACE_BOUND('',#575,.T.);
#660=FACE_BOUND('',#576,.T.);
#661=FACE_BOUND('',#577,.T.);
#662=FACE_BOUND('',#578,.T.);
#663=FACE_BOUND('',#579,.T.);
#664=FACE_BOUND('',#580,.T.);
#665=FACE_BOUND('',#581,.T.);
#666=FACE_BOUND('',#582,.T.);
#667=FACE_BOUND('',#583,.T.);
#668=FACE_BOUND('',#584,.T.);
#669=FACE_BOUND('',#585,.T.);
#670=FACE_BOUND('',#586,.T.);
#671=FACE_BOUND('',#587,.T.);
#672=FACE_BOUND('',#588,.T.);
#673=FACE_BOUND('',#589,.T.);
#674=FACE_BOUND('',#590,.T.);
#675=FACE_BOUND('',#591,.T.);
#676=FACE_BOUND('',#592,.T.);
#677=FACE_BOUND('',#593,.T.);
#678=FACE_BOUND('',#594,.T.);
#679=FACE_BOUND('',#595,.T.);
#680=FACE_BOUND('',#596,.T.);
#681=FACE_BOUND('',#597,.T.);
#682=FACE_BOUND('',#598,.T.);
#683=FACE_BOUND('',#599,.T.);
#684=FACE_BOUND('',#600,.T.);
#685=FACE_BOUND('',#601,.T.);
#686=FACE_BOUND('',#602,.T.);
#687=FACE_BOUND('',#603,.T.);
#688=FACE_BOUND('',#604,.T.);
#689=FACE_BOUND('',#605,.T.);
#690=FACE_BOUND('',#606,.T.);
#691=FACE_BOUND('',#607,.T.);
#692=FACE_BOUND('',#608,.T.);
#693=FACE_BOUND('',#609,.T.);
#694=FACE_BOUND('',#610,.T.);
#695=FACE_BOUND('',#611,.T.);
#696=FACE_BOUND('',#612,.T.);
#697=FACE_BOUND('',#613,.T.);
#698=FACE_BOUND('',#614,.T.);
#699=FACE_BOUND('',#615,.T.);
#700=FACE_BOUND('',#616,.T.);
#701=FACE_BOUND('',#617,.T.);
#702=FACE_BOUND('',#618,.T.);
#703=FACE_BOUND('',#619,.T.);
#704=FACE_BOUND('',#620,.T.);
#705=FACE_BOUND('',#621,.T.);
#706=FACE_BOUND('',#622,.T.);
#707=FACE_BOUND('',#623,.T.);
#708=FACE_BOUND('',#624,.T.);
#709=FACE_BOUND('',#625,.T.);
#710=FACE_BOUND('',#626,.T.);
#711=FACE_BOUND('',#627,.T.);
#712=FACE_BOUND('',#628,.T.);
#713=FACE_BOUND('',#629,.T.);
#714=CONICAL_SURFACE('',#795,3.89999999999999,1.04719755119659);
#715=CONICAL_SURFACE('',#800,5.39999999999995,1.30899693899564);
#716=CONICAL_SURFACE('',#803,5.39999999999995,1.30899693899564);
#717=CONICAL_SURFACE('',#806,5.39999999999995,1.30899693899564);
#718=CONICAL_SURFACE('',#809,5.39999999999995,1.30899693899564);
#719=CONICAL_SURFACE('',#812,5.39999999999995,1.30899693899564);
#720=CONICAL_SURFACE('',#815,5.39999999999995,1.30899693899564);
#721=CONICAL_SURFACE('',#832,2.00950000000001,0.785398163397447);
#722=CONICAL_SURFACE('',#836,2.49999999999989,0.78539816339745);
#723=CONICAL_SURFACE('',#880,4.3,0.785398163397463);
#724=CONICAL_SURFACE('',#884,4.49999999999997,1.30899693899575);
#725=CONICAL_SURFACE('',#900,4.10000000000002,1.04719755119663);
#726=ADVANCED_FACE('',(#630,#631),#714,.T.);
#727=ADVANCED_FACE('',(#632),#81,.T.);
#728=ADVANCED_FACE('',(#633),#715,.T.);
#729=ADVANCED_FACE('',(#634),#716,.T.);
#730=ADVANCED_FACE('',(#635),#717,.T.);
#731=ADVANCED_FACE('',(#636),#718,.T.);
#732=ADVANCED_FACE('',(#637),#719,.T.);
#733=ADVANCED_FACE('',(#638),#720,.T.);
#734=ADVANCED_FACE('',(#639,#640),#56,.F.);
#735=ADVANCED_FACE('',(#641,#642),#82,.T.);
#736=ADVANCED_FACE('',(#643,#644),#57,.F.);
#737=ADVANCED_FACE('',(#645,#646),#83,.T.);
#738=ADVANCED_FACE('',(#647,#648),#58,.F.);
#739=ADVANCED_FACE('',(#649,#650),#84,.T.);
#740=ADVANCED_FACE('',(#651,#652),#59,.F.);
#741=ADVANCED_FACE('',(#653,#654),#721,.T.);
#742=ADVANCED_FACE('',(#655,#656),#85,.T.);
#743=ADVANCED_FACE('',(#657,#658),#722,.T.);
#744=ADVANCED_FACE('',(#659),#60,.F.);
#745=ADVANCED_FACE('',(#660),#61,.F.);
#746=ADVANCED_FACE('',(#661),#62,.F.);
#747=ADVANCED_FACE('',(#662),#63,.F.);
#748=ADVANCED_FACE('',(#663),#64,.F.);
#749=ADVANCED_FACE('',(#664),#65,.F.);
#750=ADVANCED_FACE('',(#665),#66,.F.);
#751=ADVANCED_FACE('',(#666),#86,.T.);
#752=ADVANCED_FACE('',(#667),#87,.T.);
#753=ADVANCED_FACE('',(#668),#88,.T.);
#754=ADVANCED_FACE('',(#669),#89,.T.);
#755=ADVANCED_FACE('',(#670),#90,.T.);
#756=ADVANCED_FACE('',(#671),#91,.T.);
#757=ADVANCED_FACE('',(#672),#67,.F.);
#758=ADVANCED_FACE('',(#673),#68,.F.);
#759=ADVANCED_FACE('',(#674),#69,.F.);
#760=ADVANCED_FACE('',(#675),#70,.F.);
#761=ADVANCED_FACE('',(#676),#71,.F.);
#762=ADVANCED_FACE('',(#677),#72,.F.);
#763=ADVANCED_FACE('',(#678),#73,.F.);
#764=ADVANCED_FACE('',(#679,#680),#92,.T.);
#765=ADVANCED_FACE('',(#681,#682),#74,.F.);
#766=ADVANCED_FACE('',(#683,#684),#93,.T.);
#767=ADVANCED_FACE('',(#685,#686),#75,.F.);
#768=ADVANCED_FACE('',(#687,#688),#76,.F.);
#769=ADVANCED_FACE('',(#689,#690),#723,.T.);
#770=ADVANCED_FACE('',(#691,#692),#94,.T.);
#771=ADVANCED_FACE('',(#693,#694),#724,.T.);
#772=ADVANCED_FACE('',(#695,#696),#95,.T.);
#773=ADVANCED_FACE('',(#697,#698),#77,.F.);
#774=ADVANCED_FACE('',(#699,#700),#96,.T.);
#775=ADVANCED_FACE('',(#701,#702),#78,.F.);
#776=ADVANCED_FACE('',(#703,#704),#97,.T.);
#777=ADVANCED_FACE('',(#705,#706),#79,.F.);
#778=ADVANCED_FACE('',(#707,#708),#98,.T.);
#779=ADVANCED_FACE('',(#709,#710),#725,.T.);
#780=ADVANCED_FACE('',(#711,#712),#99,.F.);
#781=ADVANCED_FACE('',(#713),#80,.T.);
#782=CLOSED_SHELL('',(#726,#727,#728,#729,#730,#731,#732,#733,#734,#735,
#736,#737,#738,#739,#740,#741,#742,#743,#744,#745,#746,#747,#748,#749,#750,
#751,#752,#753,#754,#755,#756,#757,#758,#759,#760,#761,#762,#763,#764,#765,
#766,#767,#768,#769,#770,#771,#772,#773,#774,#775,#776,#777,#778,#779,#780,
#781));
#783=STYLED_ITEM('',(#784),#791);
#784=PRESENTATION_STYLE_ASSIGNMENT((#785));
#785=SURFACE_STYLE_USAGE(.BOTH.,#786);
#786=SURFACE_SIDE_STYLE('',(#787));
#787=SURFACE_STYLE_FILL_AREA(#788);
#788=FILL_AREA_STYLE('',(#789));
#789=FILL_AREA_STYLE_COLOUR('',#790);
#790=COLOUR_RGB('',0.689999997615814,0.689999997615814,0.689999997615814);
#791=MANIFOLD_SOLID_BREP('AS1201F-M5-04A',#782);
#792=SHAPE_DEFINITION_REPRESENTATION(#1469,#793);
#793=SHAPE_REPRESENTATION('AS1201F-M5-04A',(#794),#1464);
#794=AXIS2_PLACEMENT_3D('',#1142,#904,#905);
#795=AXIS2_PLACEMENT_3D('',#1143,#906,#907);
#796=AXIS2_PLACEMENT_3D('',#1144,#908,#909);
#797=AXIS2_PLACEMENT_3D('',#1152,#910,#911);
#798=AXIS2_PLACEMENT_3D('',#1153,#912,#913);
#799=AXIS2_PLACEMENT_3D('',#1176,#914,#915);
#800=AXIS2_PLACEMENT_3D('',#1177,#916,#917);
#801=AXIS2_PLACEMENT_3D('',#1178,#918,#919);
#802=AXIS2_PLACEMENT_3D('',#1186,#920,#921);
#803=AXIS2_PLACEMENT_3D('',#1192,#922,#923);
#804=AXIS2_PLACEMENT_3D('',#1193,#924,#925);
#805=AXIS2_PLACEMENT_3D('',#1200,#926,#927);
#806=AXIS2_PLACEMENT_3D('',#1206,#928,#929);
#807=AXIS2_PLACEMENT_3D('',#1207,#930,#931);
#808=AXIS2_PLACEMENT_3D('',#1214,#932,#933);
#809=AXIS2_PLACEMENT_3D('',#1220,#934,#935);
#810=AXIS2_PLACEMENT_3D('',#1221,#936,#937);
#811=AXIS2_PLACEMENT_3D('',#1228,#938,#939);
#812=AXIS2_PLACEMENT_3D('',#1234,#940,#941);
#813=AXIS2_PLACEMENT_3D('',#1235,#942,#943);
#814=AXIS2_PLACEMENT_3D('',#1242,#944,#945);
#815=AXIS2_PLACEMENT_3D('',#1248,#946,#947);
#816=AXIS2_PLACEMENT_3D('',#1249,#948,#949);
#817=AXIS2_PLACEMENT_3D('',#1255,#950,#951);
#818=AXIS2_PLACEMENT_3D('',#1261,#952,#953);
#819=AXIS2_PLACEMENT_3D('',#1262,#954,#955);
#820=AXIS2_PLACEMENT_3D('',#1264,#956,#957);
#821=AXIS2_PLACEMENT_3D('',#1265,#958,#959);
#822=AXIS2_PLACEMENT_3D('',#1267,#960,#961);
#823=AXIS2_PLACEMENT_3D('',#1268,#962,#963);
#824=AXIS2_PLACEMENT_3D('',#1270,#964,#965);
#825=AXIS2_PLACEMENT_3D('',#1271,#966,#967);
#826=AXIS2_PLACEMENT_3D('',#1273,#968,#969);
#827=AXIS2_PLACEMENT_3D('',#1274,#970,#971);
#828=AXIS2_PLACEMENT_3D('',#1276,#972,#973);
#829=AXIS2_PLACEMENT_3D('',#1277,#974,#975);
#830=AXIS2_PLACEMENT_3D('',#1279,#976,#977);
#831=AXIS2_PLACEMENT_3D('',#1280,#978,#979);
#832=AXIS2_PLACEMENT_3D('',#1282,#980,#981);
#833=AXIS2_PLACEMENT_3D('',#1283,#982,#983);
#834=AXIS2_PLACEMENT_3D('',#1285,#984,#985);
#835=AXIS2_PLACEMENT_3D('',#1286,#986,#987);
#836=AXIS2_PLACEMENT_3D('',#1288,#988,#989);
#837=AXIS2_PLACEMENT_3D('',#1289,#990,#991);
#838=AXIS2_PLACEMENT_3D('',#1291,#992,#993);
#839=AXIS2_PLACEMENT_3D('',#1292,#994,#995);
#840=AXIS2_PLACEMENT_3D('',#1296,#997,#998);
#841=AXIS2_PLACEMENT_3D('',#1297,#999,#1000);
#842=AXIS2_PLACEMENT_3D('',#1301,#1002,#1003);
#843=AXIS2_PLACEMENT_3D('',#1302,#1004,#1005);
#844=AXIS2_PLACEMENT_3D('',#1306,#1007,#1008);
#845=AXIS2_PLACEMENT_3D('',#1307,#1009,#1010);
#846=AXIS2_PLACEMENT_3D('',#1311,#1012,#1013);
#847=AXIS2_PLACEMENT_3D('',#1312,#1014,#1015);
#848=AXIS2_PLACEMENT_3D('',#1316,#1017,#1018);
#849=AXIS2_PLACEMENT_3D('',#1317,#1019,#1020);
#850=AXIS2_PLACEMENT_3D('',#1321,#1022,#1023);
#851=AXIS2_PLACEMENT_3D('',#1322,#1024,#1025);
#852=AXIS2_PLACEMENT_3D('',#1327,#1028,#1029);
#853=AXIS2_PLACEMENT_3D('',#1328,#1030,#1031);
#854=AXIS2_PLACEMENT_3D('',#1333,#1034,#1035);
#855=AXIS2_PLACEMENT_3D('',#1334,#1036,#1037);
#856=AXIS2_PLACEMENT_3D('',#1339,#1040,#1041);
#857=AXIS2_PLACEMENT_3D('',#1340,#1042,#1043);
#858=AXIS2_PLACEMENT_3D('',#1345,#1046,#1047);
#859=AXIS2_PLACEMENT_3D('',#1346,#1048,#1049);
#860=AXIS2_PLACEMENT_3D('',#1351,#1052,#1053);
#861=AXIS2_PLACEMENT_3D('',#1352,#1054,#1055);
#862=AXIS2_PLACEMENT_3D('',#1357,#1058,#1059);
#863=AXIS2_PLACEMENT_3D('',#1358,#1060,#1061);
#864=AXIS2_PLACEMENT_3D('',#1367,#1062,#1063);
#865=AXIS2_PLACEMENT_3D('',#1376,#1064,#1065);
#866=AXIS2_PLACEMENT_3D('',#1385,#1066,#1067);
#867=AXIS2_PLACEMENT_3D('',#1394,#1068,#1069);
#868=AXIS2_PLACEMENT_3D('',#1403,#1070,#1071);
#869=AXIS2_PLACEMENT_3D('',#1412,#1072,#1073);
#870=AXIS2_PLACEMENT_3D('',#1413,#1074,#1075);
#871=AXIS2_PLACEMENT_3D('',#1415,#1076,#1077);
#872=AXIS2_PLACEMENT_3D('',#1416,#1078,#1079);
#873=AXIS2_PLACEMENT_3D('',#1418,#1080,#1081);
#874=AXIS2_PLACEMENT_3D('',#1419,#1082,#1083);
#875=AXIS2_PLACEMENT_3D('',#1421,#1084,#1085);
#876=AXIS2_PLACEMENT_3D('',#1422,#1086,#1087);
#877=AXIS2_PLACEMENT_3D('',#1424,#1088,#1089);
#878=AXIS2_PLACEMENT_3D('',#1425,#1090,#1091);
#879=AXIS2_PLACEMENT_3D('',#1426,#1092,#1093);
#880=AXIS2_PLACEMENT_3D('',#1428,#1094,#1095);
#881=AXIS2_PLACEMENT_3D('',#1429,#1096,#1097);
#882=AXIS2_PLACEMENT_3D('',#1431,#1098,#1099);
#883=AXIS2_PLACEMENT_3D('',#1432,#1100,#1101);
#884=AXIS2_PLACEMENT_3D('',#1434,#1102,#1103);
#885=AXIS2_PLACEMENT_3D('',#1435,#1104,#1105);
#886=AXIS2_PLACEMENT_3D('',#1436,#1106,#1107);
#887=AXIS2_PLACEMENT_3D('',#1438,#1108,#1109);
#888=AXIS2_PLACEMENT_3D('',#1439,#1110,#1111);
#889=AXIS2_PLACEMENT_3D('',#1441,#1112,#1113);
#890=AXIS2_PLACEMENT_3D('',#1443,#1114,#1115);
#891=AXIS2_PLACEMENT_3D('',#1444,#1116,#1117);
#892=AXIS2_PLACEMENT_3D('',#1446,#1118,#1119);
#893=AXIS2_PLACEMENT_3D('',#1447,#1120,#1121);
#894=AXIS2_PLACEMENT_3D('',#1449,#1122,#1123);
#895=AXIS2_PLACEMENT_3D('',#1450,#1124,#1125);
#896=AXIS2_PLACEMENT_3D('',#1452,#1126,#1127);
#897=AXIS2_PLACEMENT_3D('',#1453,#1128,#1129);
#898=AXIS2_PLACEMENT_3D('',#1455,#1130,#1131);
#899=AXIS2_PLACEMENT_3D('',#1456,#1132,#1133);
#900=AXIS2_PLACEMENT_3D('',#1458,#1134,#1135);
#901=AXIS2_PLACEMENT_3D('',#1459,#1136,#1137);
#902=AXIS2_PLACEMENT_3D('',#1460,#1138,#1139);
#903=AXIS2_PLACEMENT_3D('',#1462,#1140,#1141);
#904=DIRECTION('',(0.,0.,1.));
#905=DIRECTION('',(1.,0.,0.));
#906=DIRECTION('',(2.14503467399276E-15,-1.,0.));
#907=DIRECTION('',(1.,2.14503467399276E-15,0.));
#908=DIRECTION('',(2.14503467399276E-15,-1.,0.));
#909=DIRECTION('',(1.,2.14503467399276E-15,0.));
#910=DIRECTION('',(2.14503467399276E-15,-1.,0.));
#911=DIRECTION('',(1.,2.14503467399276E-15,0.));
#912=DIRECTION('',(2.14503467399276E-15,-1.,0.));
#913=DIRECTION('',(1.,2.14503467399276E-15,0.));
#914=DIRECTION('',(2.14503467399276E-15,-1.,0.));
#915=DIRECTION('',(1.,2.14503467399276E-15,0.));
#916=DIRECTION('',(-2.14503467399276E-15,1.,0.));
#917=DIRECTION('',(-1.,-2.14503467399276E-15,0.));
#918=DIRECTION('',(-2.14503467399276E-15,1.,0.));
#919=DIRECTION('',(-1.,-2.14503467399276E-15,0.));
#920=DIRECTION('',(2.14503467399276E-15,-1.,0.));
#921=DIRECTION('',(1.,2.14503467399276E-15,0.));
#922=DIRECTION('',(-2.14503467399276E-15,1.,0.));
#923=DIRECTION('',(-1.,-2.14503467399276E-15,0.));
#924=DIRECTION('',(2.14503467399276E-15,-1.,0.));
#925=DIRECTION('',(1.,2.14503467399276E-15,0.));
#926=DIRECTION('',(-2.14503467399276E-15,1.,0.));
#927=DIRECTION('',(-1.,-2.14503467399276E-15,0.));
#928=DIRECTION('',(-2.14503467399276E-15,1.,0.));
#929=DIRECTION('',(-1.,-2.14503467399276E-15,0.));
#930=DIRECTION('',(2.14503467399276E-15,-1.,0.));
#931=DIRECTION('',(1.,2.14503467399276E-15,0.));
#932=DIRECTION('',(-2.14503467399276E-15,1.,0.));
#933=DIRECTION('',(-1.,-2.14503467399276E-15,0.));
#934=DIRECTION('',(-2.14503467399276E-15,1.,0.));
#935=DIRECTION('',(-1.,-2.14503467399276E-15,0.));
#936=DIRECTION('',(2.14503467399276E-15,-1.,0.));
#937=DIRECTION('',(1.,2.14503467399276E-15,0.));
#938=DIRECTION('',(-2.14503467399276E-15,1.,0.));
#939=DIRECTION('',(-1.,-2.14503467399276E-15,0.));
#940=DIRECTION('',(-2.14503467399276E-15,1.,0.));
#941=DIRECTION('',(-1.,-2.14503467399276E-15,0.));
#942=DIRECTION('',(2.14503467399276E-15,-1.,0.));
#943=DIRECTION('',(1.,2.14503467399276E-15,0.));
#944=DIRECTION('',(-2.14503467399276E-15,1.,0.));
#945=DIRECTION('',(-1.,-2.14503467399276E-15,0.));
#946=DIRECTION('',(-2.14503467399276E-15,1.,0.));
#947=DIRECTION('',(-1.,-2.14503467399276E-15,0.));
#948=DIRECTION('',(2.14503467399276E-15,-1.,0.));
#949=DIRECTION('',(1.,2.14503467399276E-15,0.));
#950=DIRECTION('',(-2.14503467399276E-15,1.,0.));
#951=DIRECTION('',(-1.,-2.14503467399276E-15,0.));
#952=DIRECTION('',(-2.14503467399276E-15,1.,0.));
#953=DIRECTION('',(-1.,-2.14503467399276E-15,0.));
#954=DIRECTION('',(2.14503467399276E-15,-1.,0.));
#955=DIRECTION('',(1.,2.14503467399276E-15,0.));
#956=DIRECTION('',(2.14503467399276E-15,-1.,0.));
#957=DIRECTION('',(1.,2.14503467399276E-15,0.));
#958=DIRECTION('',(2.14503467399276E-15,-1.,0.));
#959=DIRECTION('',(1.,2.14503467399276E-15,0.));
#960=DIRECTION('',(-2.14503467399276E-15,1.,0.));
#961=DIRECTION('',(-1.,-2.14503467399276E-15,0.));
#962=DIRECTION('',(2.14503467399276E-15,-1.,0.));
#963=DIRECTION('',(1.,2.14503467399276E-15,0.));
#964=DIRECTION('',(2.14503467399276E-15,-1.,0.));
#965=DIRECTION('',(1.,2.14503467399276E-15,0.));
#966=DIRECTION('',(2.14503467399276E-15,-1.,0.));
#967=DIRECTION('',(1.,2.14503467399276E-15,0.));
#968=DIRECTION('',(-2.14503467399276E-15,1.,0.));
#969=DIRECTION('',(-1.,-2.14503467399276E-15,0.));
#970=DIRECTION('',(2.14503467399276E-15,-1.,0.));
#971=DIRECTION('',(1.,2.14503467399276E-15,0.));
#972=DIRECTION('',(2.14503467399276E-15,-1.,0.));
#973=DIRECTION('',(1.,2.14503467399276E-15,0.));
#974=DIRECTION('',(2.14503467399276E-15,-1.,0.));
#975=DIRECTION('',(1.,2.14503467399276E-15,0.));
#976=DIRECTION('',(-2.14503467399276E-15,1.,0.));
#977=DIRECTION('',(-1.,-2.14503467399276E-15,0.));
#978=DIRECTION('',(2.14503467399276E-15,-1.,0.));
#979=DIRECTION('',(1.,2.14503467399276E-15,0.));
#980=DIRECTION('',(2.14503467399276E-15,-1.,0.));
#981=DIRECTION('',(1.,2.14503467399276E-15,0.));
#982=DIRECTION('',(2.14503467399276E-15,-1.,0.));
#983=DIRECTION('',(1.,2.14503467399276E-15,0.));
#984=DIRECTION('',(2.14503467399276E-15,-1.,0.));
#985=DIRECTION('',(1.,2.14503467399276E-15,0.));
#986=DIRECTION('',(2.14503467399276E-15,-1.,0.));
#987=DIRECTION('',(1.,2.14503467399276E-15,0.));
#988=DIRECTION('',(-2.14503467399276E-15,1.,0.));
#989=DIRECTION('',(-1.,-2.14503467399276E-15,0.));
#990=DIRECTION('',(2.14503467399276E-15,-1.,0.));
#991=DIRECTION('',(1.,2.14503467399276E-15,0.));
#992=DIRECTION('',(-2.14503467399276E-15,1.,0.));
#993=DIRECTION('',(-1.,-2.14503467399276E-15,0.));
#994=DIRECTION('',(0.,1.,0.));
#995=DIRECTION('',(0.,0.,1.));
#996=DIRECTION('',(0.866025403784438,0.,-0.5));
#997=DIRECTION('',(0.,1.,0.));
#998=DIRECTION('',(0.,0.,1.));
#999=DIRECTION('',(0.,1.,0.));
#1000=DIRECTION('',(0.,0.,1.));
#1001=DIRECTION('',(0.,0.,-1.));
#1002=DIRECTION('',(0.,1.,0.));
#1003=DIRECTION('',(0.,0.,1.));
#1004=DIRECTION('',(0.,1.,0.));
#1005=DIRECTION('',(0.,0.,1.));
#1006=DIRECTION('',(-0.866025403784438,0.,-0.5));
#1007=DIRECTION('',(0.,1.,0.));
#1008=DIRECTION('',(0.,0.,1.));
#1009=DIRECTION('',(0.,1.,0.));
#1010=DIRECTION('',(0.,0.,1.));
#1011=DIRECTION('',(-0.866025403784438,0.,0.5));
#1012=DIRECTION('',(0.,1.,0.));
#1013=DIRECTION('',(0.,0.,1.));
#1014=DIRECTION('',(0.,1.,0.));
#1015=DIRECTION('',(0.,0.,1.));
#1016=DIRECTION('',(0.,0.,1.));
#1017=DIRECTION('',(0.,1.,0.));
#1018=DIRECTION('',(0.,0.,1.));
#1019=DIRECTION('',(0.,1.,0.));
#1020=DIRECTION('',(0.,0.,1.));
#1021=DIRECTION('',(0.866025403784439,0.,0.5));
#1022=DIRECTION('',(0.,1.,0.));
#1023=DIRECTION('',(0.,0.,1.));
#1024=DIRECTION('',(0.,-1.,0.));
#1025=DIRECTION('',(0.,0.,-1.));
#1026=DIRECTION('',(0.,-1.,0.));
#1027=DIRECTION('',(0.,-1.,0.));
#1028=DIRECTION('',(2.14503467399276E-15,-1.,0.));
#1029=DIRECTION('',(1.,2.14503467399276E-15,0.));
#1030=DIRECTION('',(0.,-1.,0.));
#1031=DIRECTION('',(0.,0.,-1.));
#1032=DIRECTION('',(0.,-1.,0.));
#1033=DIRECTION('',(0.,-1.,0.));
#1034=DIRECTION('',(2.14503467399276E-15,-1.,0.));
#1035=DIRECTION('',(1.,2.14503467399276E-15,0.));
#1036=DIRECTION('',(0.,-1.,0.));
#1037=DIRECTION('',(0.,0.,-1.));
#1038=DIRECTION('',(0.,-1.,0.));
#1039=DIRECTION('',(0.,-1.,0.));
#1040=DIRECTION('',(2.14503467399276E-15,-1.,0.));
#1041=DIRECTION('',(1.,2.14503467399276E-15,0.));
#1042=DIRECTION('',(0.,-1.,0.));
#1043=DIRECTION('',(0.,0.,-1.));
#1044=DIRECTION('',(0.,-1.,0.));
#1045=DIRECTION('',(0.,-1.,0.));
#1046=DIRECTION('',(2.14503467399276E-15,-1.,0.));
#1047=DIRECTION('',(1.,2.14503467399276E-15,0.));
#1048=DIRECTION('',(0.,-1.,0.));
#1049=DIRECTION('',(0.,0.,-1.));
#1050=DIRECTION('',(0.,-1.,0.));
#1051=DIRECTION('',(0.,-1.,0.));
#1052=DIRECTION('',(2.14503467399276E-15,-1.,0.));
#1053=DIRECTION('',(1.,2.14503467399276E-15,0.));
#1054=DIRECTION('',(0.,-1.,0.));
#1055=DIRECTION('',(0.,0.,-1.));
#1056=DIRECTION('',(0.,-1.,0.));
#1057=DIRECTION('',(0.,-1.,0.));
#1058=DIRECTION('',(2.14503467399276E-15,-1.,0.));
#1059=DIRECTION('',(1.,2.14503467399276E-15,0.));
#1060=DIRECTION('',(1.,0.,0.));
#1061=DIRECTION('',(0.,0.,-1.));
#1062=DIRECTION('',(0.5,0.,0.866025403784439));
#1063=DIRECTION('',(0.866025403784439,0.,-0.5));
#1064=DIRECTION('',(-0.5,0.,0.866025403784438));
#1065=DIRECTION('',(0.866025403784438,0.,0.5));
#1066=DIRECTION('',(-1.,0.,0.));
#1067=DIRECTION('',(0.,0.,1.));
#1068=DIRECTION('',(-0.5,0.,-0.866025403784439));
#1069=DIRECTION('',(-0.866025403784439,0.,0.5));
#1070=DIRECTION('',(0.5,0.,-0.866025403784439));
#1071=DIRECTION('',(-0.866025403784439,0.,-0.5));
#1072=DIRECTION('',(2.14503467399276E-15,-1.,0.));
#1073=DIRECTION('',(1.,2.14503467399276E-15,0.));
#1074=DIRECTION('',(2.14503467399276E-15,-1.,0.));
#1075=DIRECTION('',(1.,2.14503467399276E-15,0.));
#1076=DIRECTION('',(2.14503467399276E-15,-1.,0.));
#1077=DIRECTION('',(1.,2.14503467399276E-15,0.));
#1078=DIRECTION('',(0.,-1.,-2.14503467399276E-15));
#1079=DIRECTION('',(0.,2.14503467399276E-15,-1.));
#1080=DIRECTION('',(0.,1.,2.14503467399276E-15));
#1081=DIRECTION('',(0.,-2.14503467399276E-15,1.));
#1082=DIRECTION('',(0.,1.,2.14503467399276E-15));
#1083=DIRECTION('',(0.,-2.14503467399276E-15,1.));
#1084=DIRECTION('',(2.14503467399276E-15,-1.,0.));
#1085=DIRECTION('',(1.,2.14503467399276E-15,0.));
#1086=DIRECTION('',(2.14503467399276E-15,-1.,0.));
#1087=DIRECTION('',(1.,2.14503467399276E-15,0.));
#1088=DIRECTION('',(2.14503467399276E-15,-1.,0.));
#1089=DIRECTION('',(1.,2.14503467399276E-15,0.));
#1090=DIRECTION('',(-2.14503467399276E-15,1.,0.));
#1091=DIRECTION('',(-1.,-2.14503467399276E-15,0.));
#1092=DIRECTION('',(2.14503467399276E-15,-1.,0.));
#1093=DIRECTION('',(1.,2.14503467399276E-15,0.));
#1094=DIRECTION('',(2.14503467399276E-15,-1.,0.));
#1095=DIRECTION('',(1.,2.14503467399276E-15,0.));
#1096=DIRECTION('',(2.14503467399276E-15,-1.,0.));
#1097=DIRECTION('',(1.,2.14503467399276E-15,0.));
#1098=DIRECTION('',(2.14503467399276E-15,-1.,0.));
#1099=DIRECTION('',(1.,2.14503467399276E-15,0.));
#1100=DIRECTION('',(2.14503467399276E-15,-1.,0.));
#1101=DIRECTION('',(1.,2.14503467399276E-15,0.));
#1102=DIRECTION('',(2.14503467399276E-15,-1.,0.));
#1103=DIRECTION('',(1.,2.14503467399276E-15,0.));
#1104=DIRECTION('',(0.,0.,-1.));
#1105=DIRECTION('',(-1.,0.,0.));
#1106=DIRECTION('',(0.,0.,-1.));
#1107=DIRECTION('',(-1.,0.,0.));
#1108=DIRECTION('',(0.,0.,-1.));
#1109=DIRECTION('',(-1.,0.,0.));
#1110=DIRECTION('',(0.,0.,-1.));
#1111=DIRECTION('',(-1.,0.,0.));
#1112=DIRECTION('',(0.,0.,-1.));
#1113=DIRECTION('',(-1.,0.,0.));
#1114=DIRECTION('',(0.,0.,-1.));
#1115=DIRECTION('',(-1.,0.,0.));
#1116=DIRECTION('',(0.,0.,-1.));
#1117=DIRECTION('',(-1.,0.,0.));
#1118=DIRECTION('',(0.,0.,1.));
#1119=DIRECTION('',(1.,0.,0.));
#1120=DIRECTION('',(0.,0.,-1.));
#1121=DIRECTION('',(-1.,0.,0.));
#1122=DIRECTION('',(0.,0.,-1.));
#1123=DIRECTION('',(-1.,0.,0.));
#1124=DIRECTION('',(0.,0.,-1.));
#1125=DIRECTION('',(-1.,0.,0.));
#1126=DIRECTION('',(0.,0.,-1.));
#1127=DIRECTION('',(-1.,0.,0.));
#1128=DIRECTION('',(0.,0.,-1.));
#1129=DIRECTION('',(-1.,0.,0.));
#1130=DIRECTION('',(0.,0.,-1.));
#1131=DIRECTION('',(-1.,0.,0.));
#1132=DIRECTION('',(0.,0.,-1.));
#1133=DIRECTION('',(-1.,0.,0.));
#1134=DIRECTION('',(0.,0.,1.));
#1135=DIRECTION('',(1.,0.,0.));
#1136=DIRECTION('',(0.,0.,-1.));
#1137=DIRECTION('',(-1.,0.,0.));
#1138=DIRECTION('',(0.,0.,-1.));
#1139=DIRECTION('',(-1.,0.,0.));
#1140=DIRECTION('',(0.,0.,1.));
#1141=DIRECTION('',(1.,0.,0.));
#1142=CARTESIAN_POINT('',(0.,0.,0.));
#1143=CARTESIAN_POINT('',(1.38354736472533E-14,17.05,0.));
#1144=CARTESIAN_POINT('',(1.38354736472533E-14,17.05,0.));
#1145=CARTESIAN_POINT('',(3.90000000000001,17.05,0.));
#1146=CARTESIAN_POINT('',(1.05608712453758,16.7613248654052,4.27137916666103));
#1147=CARTESIAN_POINT('',(0.409286332896929,17.0000527346001,4.00535906368349));
#1148=CARTESIAN_POINT('',(-0.406808524359031,17.0009672695854,4.00433997574956));
#1149=CARTESIAN_POINT('',(-1.05608712453758,16.7613248654052,4.27137916666102));
#1150=CARTESIAN_POINT('',(1.05608712453757,16.7613248654052,4.27137916666102));
#1151=CARTESIAN_POINT('',(-1.05608712453758,16.7613248654052,4.27137916666102));
#1152=CARTESIAN_POINT('',(1.44546918204787E-14,16.7613248654052,0.));
#1153=CARTESIAN_POINT('',(5.6843418860808E-14,-3.,0.));
#1154=CARTESIAN_POINT('',(-1.05608712453758,16.7613248654052,4.27137916666101));
#1155=CARTESIAN_POINT('',(-1.39723733661245,16.6354096465981,4.18703068518748));
#1156=CARTESIAN_POINT('',(-2.00358135752746,16.2753988858419,3.95079606947531));
#1157=CARTESIAN_POINT('',(-2.67339612421765,15.4858283526352,3.51685551461328));
#1158=CARTESIAN_POINT('',(-3.06247075099294,14.4831076366208,3.1618161984368));
#1159=CARTESIAN_POINT('',(-3.06637305219564,13.3376931906425,3.15769157429576));
#1160=CARTESIAN_POINT('',(-2.68395278400473,12.3317894941308,3.50847683383019));
#1161=CARTESIAN_POINT('',(-2.01809388015066,11.5368445413025,3.94317816135328));
#1162=CARTESIAN_POINT('',(-1.11156059402339,10.9908928903325,4.30086329590217));
#1163=CARTESIAN_POINT('',(-0.370876901330003,10.85,4.39999999999998));
#1164=CARTESIAN_POINT('',(1.09555184012216E-14,10.85,4.39999999999998));
#1165=CARTESIAN_POINT('',(6.54235575567788E-15,10.85,4.39999999999997));
#1166=CARTESIAN_POINT('',(1.09555184012216E-14,10.85,4.39999999999998));
#1167=CARTESIAN_POINT('',(0.740421926573094,10.85,4.39999999999998));
#1168=CARTESIAN_POINT('',(1.80503400197297,11.2744055447327,4.088380119123));
#1169=CARTESIAN_POINT('',(2.68139237497821,12.329942230442,3.5090612430888));
#1170=CARTESIAN_POINT('',(3.06650454988908,13.3366226791866,3.15803545411863));
#1171=CARTESIAN_POINT('',(3.0629432909732,14.4805509197655,3.1613137099978));
#1172=CARTESIAN_POINT('',(2.67367572302245,15.484766249691,3.51637873845548));
#1173=CARTESIAN_POINT('',(2.00804020944142,16.2719465212976,3.94870279522983));
#1174=CARTESIAN_POINT('',(1.39690566015937,16.6355320651448,4.18711269130728));
#1175=CARTESIAN_POINT('',(1.05608712453757,16.7613248654052,4.27137916666102));
#1176=CARTESIAN_POINT('',(2.71346886260084E-14,10.85,0.));
#1177=CARTESIAN_POINT('',(4.6566226816371E-14,1.7911542731881,0.));
#1178=CARTESIAN_POINT('',(4.69110830015509E-14,1.63038475772939,0.));
#1179=CARTESIAN_POINT('',(-3.69654761414894,1.63038475772938,3.06194966260547));
#1180=CARTESIAN_POINT('',(-4.50000000000002,1.63038475772938,1.67032930884901));
#1181=CARTESIAN_POINT('',(-4.5,1.63038475772938,1.67032930884902));
#1182=CARTESIAN_POINT('',(-4.5,1.57863843117729,1.11536352448757));
#1183=CARTESIAN_POINT('',(-4.5,1.55,0.558720866567624));
#1184=CARTESIAN_POINT('',(-4.5,1.55,-3.14657053886762E-15));
#1185=CARTESIAN_POINT('',(-4.5,1.54999999999998,0.));
#1186=CARTESIAN_POINT('',(4.7083511094141E-14,1.54999999999999,0.));
#1187=CARTESIAN_POINT('',(-2.24999999999996,1.54999999999999,3.89711431702999));
#1188=CARTESIAN_POINT('',(-2.24999999999997,1.55,3.89711431702999));
#1189=CARTESIAN_POINT('',(-2.73218253804963,1.55,3.61872609888849));
#1190=CARTESIAN_POINT('',(-3.21436507609929,1.57846960169572,3.34033788074698));
#1191=CARTESIAN_POINT('',(-3.69654761414895,1.63038475772928,3.06194966260547));
#1192=CARTESIAN_POINT('',(4.6566226816371E-14,1.7911542731881,0.));
#1193=CARTESIAN_POINT('',(4.7083511094141E-14,1.54999999999999,0.));
#1194=CARTESIAN_POINT('',(-2.24999999999997,1.54999999999999,-3.89711431702999));
#1195=CARTESIAN_POINT('',(-4.5,1.55,-5.25823736814196E-16));
#1196=CARTESIAN_POINT('',(-4.5,1.55,-0.554832005998381));
#1197=CARTESIAN_POINT('',(-4.5,1.57829847193761,-1.11171755077942));
#1198=CARTESIAN_POINT('',(-4.5,1.63038475772937,-1.67032930884901));
#1199=CARTESIAN_POINT('',(-4.5,1.63038475772939,-1.67032930884901));
#1200=CARTESIAN_POINT('',(4.69110830015509E-14,1.6303847577294,0.));
#1201=CARTESIAN_POINT('',(-3.69654761414894,1.63038475772937,-3.06194966260547));
#1202=CARTESIAN_POINT('',(-3.69654761414894,1.63038475772928,-3.06194966260547));
#1203=CARTESIAN_POINT('',(-3.21436507609929,1.57846960169572,-3.34033788074698));
#1204=CARTESIAN_POINT('',(-2.73218253804962,1.55,-3.61872609888849));
#1205=CARTESIAN_POINT('',(-2.24999999999997,1.55,-3.89711431702999));
#1206=CARTESIAN_POINT('',(4.6566226816371E-14,1.7911542731881,0.));
#1207=CARTESIAN_POINT('',(4.7083511094141E-14,1.54999999999999,0.));
#1208=CARTESIAN_POINT('',(2.25000000000004,1.55,-3.89711431702995));
#1209=CARTESIAN_POINT('',(-2.24999999999997,1.55,-3.89711431702999));
#1210=CARTESIAN_POINT('',(-1.76781746195033,1.55,-4.17550253517149));
#1211=CARTESIAN_POINT('',(-1.28563492390069,1.57846960169572,-4.45389075331298));
#1212=CARTESIAN_POINT('',(-0.803452385851056,1.63038475772928,-4.73227897145448));
#1213=CARTESIAN_POINT('',(-0.803452385851057,1.63038475772937,-4.73227897145448));
#1214=CARTESIAN_POINT('',(4.6911083001551E-14,1.63038475772938,0.));
#1215=CARTESIAN_POINT('',(0.803452385851057,1.63038475772937,-4.73227897145448));
#1216=CARTESIAN_POINT('',(0.803452385851057,1.63038475772927,-4.73227897145448));
#1217=CARTESIAN_POINT('',(1.28563492390072,1.57846960169572,-4.45389075331297));
#1218=CARTESIAN_POINT('',(1.76781746195038,1.55,-4.17550253517146));
#1219=CARTESIAN_POINT('',(2.25000000000004,1.55,-3.89711431702995));
#1220=CARTESIAN_POINT('',(4.6566226816371E-14,1.7911542731881,0.));
#1221=CARTESIAN_POINT('',(4.7083511094141E-14,1.54999999999999,0.));
#1222=CARTESIAN_POINT('',(4.5,1.55,0.));
#1223=CARTESIAN_POINT('',(2.25000000000004,1.55,-3.89711431702995));
#1224=CARTESIAN_POINT('',(2.73218253804967,1.55,-3.61872609888846));
#1225=CARTESIAN_POINT('',(3.21436507609931,1.57846960169572,-3.34033788074696));
#1226=CARTESIAN_POINT('',(3.69654761414894,1.63038475772927,-3.06194966260547));
#1227=CARTESIAN_POINT('',(3.69654761414895,1.63038475772938,-3.06194966260547));
#1228=CARTESIAN_POINT('',(4.69110830015509E-14,1.63038475772939,0.));
#1229=CARTESIAN_POINT('',(4.5,1.63038475772937,-1.67032930884901));
#1230=CARTESIAN_POINT('',(4.5,1.63038475772937,-1.67032930884901));
#1231=CARTESIAN_POINT('',(4.5,1.57863843117728,-1.11536352448756));
#1232=CARTESIAN_POINT('',(4.5,1.55,-0.558720866567628));
#1233=CARTESIAN_POINT('',(4.5,1.55,-3.27544514259406E-15));
#1234=CARTESIAN_POINT('',(4.6566226816371E-14,1.7911542731881,0.));
#1235=CARTESIAN_POINT('',(4.7083511094141E-14,1.54999999999999,0.));
#1236=CARTESIAN_POINT('',(2.25000000000004,1.55,3.89711431702995));
#1237=CARTESIAN_POINT('',(4.5,1.55,-1.53935261062807E-15));
#1238=CARTESIAN_POINT('',(4.5,1.55,0.55483200599838));
#1239=CARTESIAN_POINT('',(4.5,1.5782984719376,1.11171755077942));
#1240=CARTESIAN_POINT('',(4.5,1.63038475772937,1.67032930884901));
#1241=CARTESIAN_POINT('',(4.5,1.63038475772938,1.67032930884901));
#1242=CARTESIAN_POINT('',(4.69110830015509E-14,1.63038475772939,0.));
#1243=CARTESIAN_POINT('',(3.69654761414894,1.63038475772937,3.06194966260547));
#1244=CARTESIAN_POINT('',(3.69654761414894,1.63038475772927,3.06194966260547));
#1245=CARTESIAN_POINT('',(3.21436507609931,1.57846960169572,3.34033788074696));
#1246=CARTESIAN_POINT('',(2.73218253804967,1.55,3.61872609888846));
#1247=CARTESIAN_POINT('',(2.25000000000004,1.55,3.89711431702995));
#1248=CARTESIAN_POINT('',(4.6566226816371E-14,1.7911542731881,0.));
#1249=CARTESIAN_POINT('',(4.7083511094141E-14,1.54999999999999,0.));
#1250=CARTESIAN_POINT('',(2.25000000000004,1.55,3.89711431702995));
#1251=CARTESIAN_POINT('',(1.76781746195038,1.55,4.17550253517146));
#1252=CARTESIAN_POINT('',(1.28563492390071,1.57846960169572,4.45389075331297));
#1253=CARTESIAN_POINT('',(0.803452385851054,1.63038475772928,4.73227897145448));
#1254=CARTESIAN_POINT('',(0.803452385851054,1.63038475772938,4.73227897145448));
#1255=CARTESIAN_POINT('',(4.69110830015509E-14,1.63038475772939,0.));
#1256=CARTESIAN_POINT('',(-0.803452385851055,1.63038475772937,4.73227897145448));
#1257=CARTESIAN_POINT('',(-0.803452385851055,1.63038475772928,4.73227897145448));
#1258=CARTESIAN_POINT('',(-1.28563492390069,1.57846960169572,4.45389075331298));
#1259=CARTESIAN_POINT('',(-1.76781746195033,1.55,4.17550253517149));
#1260=CARTESIAN_POINT('',(-2.24999999999997,1.55,3.89711431702999));
#1261=CARTESIAN_POINT('',(4.50000000000001,1.55,0.));
#1262=CARTESIAN_POINT('',(4.7083511094141E-14,1.54999999999999,0.));
#1263=CARTESIAN_POINT('',(4.,1.55,0.));
#1264=CARTESIAN_POINT('',(5.6843418860808E-14,-3.,0.));
#1265=CARTESIAN_POINT('',(4.92285457681337E-14,0.549999999999991,0.));
#1266=CARTESIAN_POINT('',(4.,0.55,0.));
#1267=CARTESIAN_POINT('',(4.,0.550000000000001,0.));
#1268=CARTESIAN_POINT('',(4.92285457681337E-14,0.549999999999993,0.));
#1269=CARTESIAN_POINT('',(3.5,0.55,0.));
#1270=CARTESIAN_POINT('',(5.6843418860808E-14,-3.,0.));
#1271=CARTESIAN_POINT('',(5.04083148388298E-14,-7.37257477290143E-15,0.));
#1272=CARTESIAN_POINT('',(3.5,1.35046586073107E-16,0.));
#1273=CARTESIAN_POINT('',(3.5,1.39427253809529E-15,0.));
#1274=CARTESIAN_POINT('',(5.04083148388298E-14,-4.77048955893622E-15,0.));
#1275=CARTESIAN_POINT('',(2.2,-5.14132761522586E-17,0.));
#1276=CARTESIAN_POINT('',(5.6843418860808E-14,-3.,0.));
#1277=CARTESIAN_POINT('',(5.13735804421265E-14,-0.450000000000005,0.));
#1278=CARTESIAN_POINT('',(2.2,-0.45,0.));
#1279=CARTESIAN_POINT('',(2.2,-0.45,0.));
#1280=CARTESIAN_POINT('',(5.13735804421265E-14,-0.450000000000004,0.));
#1281=CARTESIAN_POINT('',(2.00950000000006,-0.45,0.));
#1282=CARTESIAN_POINT('',(5.13735804421265E-14,-0.450000000000004,0.));
#1283=CARTESIAN_POINT('',(5.24257199497197E-14,-0.940499999999891,0.));
#1284=CARTESIAN_POINT('',(2.49999999999994,-0.940499999999886,0.));
#1285=CARTESIAN_POINT('',(5.6843418860808E-14,-3.,0.));
#1286=CARTESIAN_POINT('',(5.57912793532148E-14,-2.50950000000012,0.));
#1287=CARTESIAN_POINT('',(2.49999999999994,-2.50950000000011,0.));
#1288=CARTESIAN_POINT('',(5.57912793532148E-14,-2.50950000000012,0.));
#1289=CARTESIAN_POINT('',(5.6843418860808E-14,-3.,0.));
#1290=CARTESIAN_POINT('',(2.00950000000006,-3.,0.));
#1291=CARTESIAN_POINT('',(2.00950000000006,-3.,0.));
#1292=CARTESIAN_POINT('',(0.,7.8,0.));
#1293=CARTESIAN_POINT('',(0.803452385851056,7.8,4.73227897145448));
#1294=CARTESIAN_POINT('',(1.11612058462502,7.8,4.55175990272529));
#1295=CARTESIAN_POINT('',(3.383879415375,7.8,3.24246873133464));
#1296=CARTESIAN_POINT('',(3.35697926479866E-14,7.8,3.76252784204873E-14));
#1297=CARTESIAN_POINT('',(0.,7.8,0.));
#1298=CARTESIAN_POINT('',(4.5,7.8,1.67032930884901));
#1299=CARTESIAN_POINT('',(4.5,7.8,1.30929117139063));
#1300=CARTESIAN_POINT('',(4.5,7.8,-1.30929117139055));
#1301=CARTESIAN_POINT('',(3.35697926479866E-14,7.8,3.76252784204873E-14));
#1302=CARTESIAN_POINT('',(0.,7.8,0.));
#1303=CARTESIAN_POINT('',(3.69654761414895,7.8,-3.06194966260547));
#1304=CARTESIAN_POINT('',(3.38387941537483,7.8,-3.24246873133474));
#1305=CARTESIAN_POINT('',(1.11612058462525,7.8,-4.55175990272516));
#1306=CARTESIAN_POINT('',(3.35697926479866E-14,7.8,3.76252784204873E-14));
#1307=CARTESIAN_POINT('',(0.,7.8,0.));
#1308=CARTESIAN_POINT('',(-0.803452385851056,7.8,-4.73227897145448));
#1309=CARTESIAN_POINT('',(-1.1161205846253,7.8,-4.55175990272513));
#1310=CARTESIAN_POINT('',(-3.38387941537468,7.8,-3.24246873133482));
#1311=CARTESIAN_POINT('',(3.35697926479866E-14,7.8,3.76252784204873E-14));
#1312=CARTESIAN_POINT('',(0.,7.8,0.));
#1313=CARTESIAN_POINT('',(-4.5,7.8,-1.67032930884901));
#1314=CARTESIAN_POINT('',(-4.5,7.8,-1.30929117139032));
#1315=CARTESIAN_POINT('',(-4.5,7.8,1.3092911713904));
#1316=CARTESIAN_POINT('',(3.35697926479866E-14,7.8,3.76252784204873E-14));
#1317=CARTESIAN_POINT('',(0.,7.8,0.));
#1318=CARTESIAN_POINT('',(-3.69654761414894,7.8,3.06194966260547));
#1319=CARTESIAN_POINT('',(-3.38387941537484,7.8,3.24246873133473));
#1320=CARTESIAN_POINT('',(-1.11612058462507,7.8,4.55175990272526));
#1321=CARTESIAN_POINT('',(3.35697926479866E-14,7.8,3.76252784204873E-14));
#1322=CARTESIAN_POINT('',(8.06646416329215E-14,7.8,4.9439619065339E-14));
#1323=CARTESIAN_POINT('',(-3.69654761414894,7.8,-3.06194966260547));
#1324=CARTESIAN_POINT('',(-3.69654761414894,7.76961524227063,-3.06194966260547));
#1325=CARTESIAN_POINT('',(-4.5,7.8,-1.67032930884901));
#1326=CARTESIAN_POINT('',(-4.5,7.76961524227063,-1.67032930884901));
#1327=CARTESIAN_POINT('',(3.37422207405766E-14,7.76961524227062,0.));
#1328=CARTESIAN_POINT('',(2.71050543121376E-16,7.8,2.34187669256869E-14));
#1329=CARTESIAN_POINT('',(0.803452385851057,7.8,-4.73227897145448));
#1330=CARTESIAN_POINT('',(0.803452385851057,7.76961524227065,-4.73227897145448));
#1331=CARTESIAN_POINT('',(-0.803452385851057,7.8,-4.73227897145448));
#1332=CARTESIAN_POINT('',(-0.803452385851057,7.76961524227065,-4.73227897145448));
#1333=CARTESIAN_POINT('',(3.37422207405766E-14,7.76961524227064,0.));
#1334=CARTESIAN_POINT('',(-4.59701721133854E-14,7.8,2.86229373536173E-14));
#1335=CARTESIAN_POINT('',(4.5,7.8,-1.67032930884901));
#1336=CARTESIAN_POINT('',(4.5,7.76961524227066,-1.67032930884901));
#1337=CARTESIAN_POINT('',(3.69654761414895,7.8,-3.06194966260547));
#1338=CARTESIAN_POINT('',(3.69654761414895,7.76961524227064,-3.06194966260547));
#1339=CARTESIAN_POINT('',(3.37422207405766E-14,7.76961524227063,0.));
#1340=CARTESIAN_POINT('',(-4.9439619065339E-14,7.8,-3.03576608295941E-14));
#1341=CARTESIAN_POINT('',(3.69654761414894,7.8,3.06194966260547));
#1342=CARTESIAN_POINT('',(3.69654761414894,7.76961524227066,3.06194966260547));
#1343=CARTESIAN_POINT('',(4.5,7.8,1.67032930884901));
#1344=CARTESIAN_POINT('',(4.5,7.76961524227064,1.67032930884901));
#1345=CARTESIAN_POINT('',(3.37422207405766E-14,7.76961524227063,0.));
#1346=CARTESIAN_POINT('',(5.96311194867027E-16,7.8,-7.45931094670027E-14));
#1347=CARTESIAN_POINT('',(-0.803452385851055,7.8,4.73227897145448));
#1348=CARTESIAN_POINT('',(-0.803452385851055,7.76961524227064,4.73227897145448));
#1349=CARTESIAN_POINT('',(0.803452385851054,7.8,4.73227897145448));
#1350=CARTESIAN_POINT('',(0.803452385851054,7.76961524227063,4.73227897145448));
#1351=CARTESIAN_POINT('',(3.37422207405766E-14,7.76961524227062,0.));
#1352=CARTESIAN_POINT('',(5.8113236445223E-14,7.8,-3.42607886505419E-14));
#1353=CARTESIAN_POINT('',(-4.5,7.8,1.67032930884901));
#1354=CARTESIAN_POINT('',(-4.5,7.76961524227064,1.67032930884901));
#1355=CARTESIAN_POINT('',(-3.69654761414894,7.8,3.06194966260547));
#1356=CARTESIAN_POINT('',(-3.69654761414894,7.76961524227064,3.06194966260547));
#1357=CARTESIAN_POINT('',(3.37422207405766E-14,7.76961524227063,0.));
#1358=CARTESIAN_POINT('',(-4.5,7.8,-1.67032930884901));
#1359=CARTESIAN_POINT('',(-4.5,7.79999999999999,1.3092911713904));
#1360=CARTESIAN_POINT('',(-4.5,7.79099129442068,1.42963721720993));
#1361=CARTESIAN_POINT('',(-4.5,7.78083659313894,1.54998326302947));
#1362=CARTESIAN_POINT('',(-4.5,7.76961524227063,1.67032930884901));
#1363=CARTESIAN_POINT('',(-4.5,7.76961524227063,-1.67032930884901));
#1364=CARTESIAN_POINT('',(-4.5,7.78083659313894,-1.54998326302945));
#1365=CARTESIAN_POINT('',(-4.5,7.79099129442069,-1.42963721720988));
#1366=CARTESIAN_POINT('',(-4.5,7.79999999999999,-1.30929117139032));
#1367=CARTESIAN_POINT('',(-0.803452385851056,7.8,-4.73227897145448));
#1368=CARTESIAN_POINT('',(-3.38387941537468,7.8,-3.24246873133482));
#1369=CARTESIAN_POINT('',(-3.48810214829944,7.79099129442069,-3.18229570842504));
#1370=CARTESIAN_POINT('',(-3.59232488122419,7.78083659313894,-3.12212268551525));
#1371=CARTESIAN_POINT('',(-3.69654761414895,7.76961524227063,-3.06194966260547));
#1372=CARTESIAN_POINT('',(-0.803452385851056,7.76961524227064,-4.73227897145448));
#1373=CARTESIAN_POINT('',(-0.907675118775805,7.78083659313895,-4.6721059485447));
#1374=CARTESIAN_POINT('',(-1.01189785170055,7.7909912944207,-4.61193292563491));
#1375=CARTESIAN_POINT('',(-1.1161205846253,7.80000000000001,-4.55175990272513));
#1376=CARTESIAN_POINT('',(3.69654761414895,7.8,-3.06194966260547));
#1377=CARTESIAN_POINT('',(1.11612058462525,7.80000000000001,-4.55175990272516));
#1378=CARTESIAN_POINT('',(1.01189785170052,7.79099129442071,-4.61193292563493));
#1379=CARTESIAN_POINT('',(0.90767511877579,7.78083659313896,-4.67210594854471));
#1380=CARTESIAN_POINT('',(0.803452385851058,7.76961524227065,-4.73227897145448));
#1381=CARTESIAN_POINT('',(3.69654761414895,7.76961524227066,-3.06194966260547));
#1382=CARTESIAN_POINT('',(3.59232488122424,7.78083659313897,-3.12212268551523));
#1383=CARTESIAN_POINT('',(3.48810214829954,7.79099129442071,-3.18229570842498));
#1384=CARTESIAN_POINT('',(3.38387941537483,7.80000000000001,-3.24246873133474));
#1385=CARTESIAN_POINT('',(4.5,7.8,1.67032930884901));
#1386=CARTESIAN_POINT('',(4.5,7.80000000000001,-1.30929117139055));
#1387=CARTESIAN_POINT('',(4.5,7.79099129442071,-1.42963721721004));
#1388=CARTESIAN_POINT('',(4.5,7.78083659313897,-1.54998326302952));
#1389=CARTESIAN_POINT('',(4.5,7.76961524227066,-1.67032930884901));
#1390=CARTESIAN_POINT('',(4.5,7.76961524227066,1.67032930884901));
#1391=CARTESIAN_POINT('',(4.5,7.78083659313897,1.54998326302955));
#1392=CARTESIAN_POINT('',(4.5,7.79099129442071,1.42963721721009));
#1393=CARTESIAN_POINT('',(4.5,7.80000000000001,1.30929117139063));
#1394=CARTESIAN_POINT('',(0.803452385851056,7.8,4.73227897145448));
#1395=CARTESIAN_POINT('',(3.383879415375,7.8,3.24246873133464));
#1396=CARTESIAN_POINT('',(3.48810214829965,7.7909912944207,3.18229570842492));
#1397=CARTESIAN_POINT('',(3.5923248812243,7.78083659313896,3.12212268551519));
#1398=CARTESIAN_POINT('',(3.69654761414895,7.76961524227066,3.06194966260547));
#1399=CARTESIAN_POINT('',(0.803452385851054,7.76961524227065,4.73227897145448));
#1400=CARTESIAN_POINT('',(0.907675118775711,7.78083659313895,4.67210594854475));
#1401=CARTESIAN_POINT('',(1.01189785170037,7.79099129442069,4.61193292563502));
#1402=CARTESIAN_POINT('',(1.11612058462502,7.79999999999999,4.55175990272529));
#1403=CARTESIAN_POINT('',(-3.69654761414894,7.8,3.06194966260547));
#1404=CARTESIAN_POINT('',(-1.11612058462507,7.79999999999999,4.55175990272526));
#1405=CARTESIAN_POINT('',(-1.0118978517004,7.79099129442069,4.611932925635));
#1406=CARTESIAN_POINT('',(-0.907675118775728,7.78083659313895,4.67210594854474));
#1407=CARTESIAN_POINT('',(-0.803452385851056,7.76961524227064,4.73227897145448));
#1408=CARTESIAN_POINT('',(-3.69654761414894,7.76961524227063,3.06194966260547));
#1409=CARTESIAN_POINT('',(-3.59232488122424,7.78083659313894,3.12212268551522));
#1410=CARTESIAN_POINT('',(-3.48810214829954,7.79099129442068,3.18229570842498));
#1411=CARTESIAN_POINT('',(-3.38387941537484,7.79999999999999,3.24246873133473));
#1412=CARTESIAN_POINT('',(1.08127583186834E-29,23.5,0.));
#1413=CARTESIAN_POINT('',(1.23259516440783E-29,23.5,0.));
#1414=CARTESIAN_POINT('',(4.70000000000005,23.5,0.));
#1415=CARTESIAN_POINT('',(5.6843418860808E-14,-3.,0.));
#1416=CARTESIAN_POINT('',(0.,18.15,-1.14759355058613E-14));
#1417=CARTESIAN_POINT('',(0.,18.15,-4.70000000000004));
#1418=CARTESIAN_POINT('',(0.,18.15,-4.70000000000005));
#1419=CARTESIAN_POINT('',(1.14759355058613E-14,18.15,0.));
#1420=CARTESIAN_POINT('',(1.14759355058613E-14,18.15,2.94999999999999));
#1421=CARTESIAN_POINT('',(5.6843418860808E-14,-3.,0.));
#1422=CARTESIAN_POINT('',(1.38354736472533E-14,17.05,0.));
#1423=CARTESIAN_POINT('',(2.95000000000001,17.05,0.));
#1424=CARTESIAN_POINT('',(2.95000000000001,17.05,0.));
#1425=CARTESIAN_POINT('',(4.4,10.85,0.));
#1426=CARTESIAN_POINT('',(2.71346886260084E-14,10.85,0.));
#1427=CARTESIAN_POINT('',(4.30000000000003,10.85,0.));
#1428=CARTESIAN_POINT('',(2.71346886260084E-14,10.85,0.));
#1429=CARTESIAN_POINT('',(2.75636955608069E-14,10.65,0.));
#1430=CARTESIAN_POINT('',(4.5,10.65,0.));
#1431=CARTESIAN_POINT('',(5.6843418860808E-14,-3.,0.));
#1432=CARTESIAN_POINT('',(3.35697926479866E-14,7.84999999999999,0.));
#1433=CARTESIAN_POINT('',(4.50000000000001,7.85,0.));
#1434=CARTESIAN_POINT('',(3.35697926479866E-14,7.84999999999999,0.));
#1435=CARTESIAN_POINT('',(0.,13.9,0.));
#1436=CARTESIAN_POINT('',(0.,13.9,5.19378221735093));
#1437=CARTESIAN_POINT('',(-3.05000000000002,13.9,5.19378221735093));
#1438=CARTESIAN_POINT('',(0.,13.9,17.2));
#1439=CARTESIAN_POINT('',(0.,13.9,17.2));
#1440=CARTESIAN_POINT('',(-2.,13.9,17.2));
#1441=CARTESIAN_POINT('',(0.,13.9,17.2));
#1442=CARTESIAN_POINT('',(-3.85000000000002,13.9,17.2));
#1443=CARTESIAN_POINT('',(0.,13.9,0.));
#1444=CARTESIAN_POINT('',(0.,13.9,15.7));
#1445=CARTESIAN_POINT('',(-3.85000000000002,13.9,15.7));
#1446=CARTESIAN_POINT('',(0.,17.75,15.7));
#1447=CARTESIAN_POINT('',(0.,13.9,15.7));
#1448=CARTESIAN_POINT('',(-2.25000000000002,13.9,15.7));
#1449=CARTESIAN_POINT('',(0.,13.9,0.));
#1450=CARTESIAN_POINT('',(0.,13.9,14.8));
#1451=CARTESIAN_POINT('',(-2.25000000000002,13.9,14.8));
#1452=CARTESIAN_POINT('',(0.,16.15,14.8));
#1453=CARTESIAN_POINT('',(0.,13.9,14.8));
#1454=CARTESIAN_POINT('',(-4.10000000000002,13.9,14.8));
#1455=CARTESIAN_POINT('',(0.,13.9,0.));
#1456=CARTESIAN_POINT('',(0.,13.9,5.8));
#1457=CARTESIAN_POINT('',(-4.10000000000002,13.9,5.8));
#1458=CARTESIAN_POINT('',(0.,13.9,5.8));
#1459=CARTESIAN_POINT('',(0.,13.9,3.9));
#1460=CARTESIAN_POINT('',(0.,13.9,3.9));
#1461=CARTESIAN_POINT('',(-2.,13.9,3.9));
#1462=CARTESIAN_POINT('',(0.,15.9,3.9));
#1463=MECHANICAL_DESIGN_GEOMETRIC_PRESENTATION_REPRESENTATION('',(#783),
#1464);
#1464=(
GEOMETRIC_REPRESENTATION_CONTEXT(3)
GLOBAL_UNCERTAINTY_ASSIGNED_CONTEXT((#1465))
GLOBAL_UNIT_ASSIGNED_CONTEXT((#1468,#1467,#1466))
REPRESENTATION_CONTEXT('AS1201F-M5-04A','TOP_LEVEL_ASSEMBLY_PART')
);
#1465=UNCERTAINTY_MEASURE_WITH_UNIT(LENGTH_MEASURE(1.E-5),#1468,
'DISTANCE_ACCURACY_VALUE','Maximum Tolerance applied to model');
#1466=(
NAMED_UNIT(*)
SI_UNIT($,.STERADIAN.)
SOLID_ANGLE_UNIT()
);
#1467=(
NAMED_UNIT(*)
PLANE_ANGLE_UNIT()
SI_UNIT($,.RADIAN.)
);
#1468=(
LENGTH_UNIT()
NAMED_UNIT(*)
SI_UNIT(.MILLI.,.METRE.)
);
#1469=PRODUCT_DEFINITION_SHAPE('','',#1470);
#1470=PRODUCT_DEFINITION('','',#1472,#1471);
#1471=PRODUCT_DEFINITION_CONTEXT('',#1478,'design');
#1472=PRODUCT_DEFINITION_FORMATION_WITH_SPECIFIED_SOURCE('','',#1474,
 .NOT_KNOWN.);
#1473=PRODUCT_RELATED_PRODUCT_CATEGORY('','',(#1474));
#1474=PRODUCT('AS1201F-M5-04A','AS1201F-M5-04A','AS1201F-M5-04A',(#1476));
#1475=PRODUCT_CATEGORY('','');
#1476=PRODUCT_CONTEXT('',#1478,'mechanical');
#1477=APPLICATION_PROTOCOL_DEFINITION('international standard',
'automotive_design',2010,#1478);
#1478=APPLICATION_CONTEXT(
'core data for automotive mechanical design processes');
ENDSEC;
END-ISO-10303-21;
