0
SECTION
2
ENTITIES
0
LINE
8
OUTLINE
10
-62.0000
20
-35.0000
30
0
11
62.0000
21
-35.0000
31
0
0
LINE
8
OUTLINE
10
70.0000
20
-27.0000
30
0
11
70.0000
21
27.0000
31
0
0
LINE
8
OUTLINE
10
62.0000
20
35.0000
30
0
11
-62.0000
21
35.0000
31
0
0
LINE
8
OUTLINE
10
-70.0000
20
27.0000
30
0
11
-70.0000
21
-27.0000
31
0
0
ARC
8
OUTLINE
10
62.0000
20
-27.0000
30
0
40
8.0000
50
270.0000
51
360.0000
0
ARC
8
OUTLINE
10
62.0000
20
27.0000
30
0
40
8.0000
50
0.0000
51
90.0000
0
ARC
8
OUTLINE
10
-62.0000
20
27.0000
30
0
40
8.0000
50
90.0000
51
180.0000
0
ARC
8
OUTLINE
10
-62.0000
20
-27.0000
30
0
40
8.0000
50
180.0000
51
270.0000
0
CIRCLE
8
SPIGOT
10
0.0000
20
0.0000
30
0
40
15.7500
0
CIRCLE
8
BORE
10
0.0000
20
0.0000
30
0
40
10.0000
0
CIRCLE
8
ROBOT_M6
10
17.6777
20
17.6777
30
0
40
3.3000
0
CIRCLE
8
ROBOT_CB
10
17.6777
20
17.6777
30
0
40
5.5000
0
CIRCLE
8
ROBOT_M6
10
17.6777
20
-17.6777
30
0
40
3.3000
0
CIRCLE
8
ROBOT_CB
10
17.6777
20
-17.6777
30
0
40
5.5000
0
CIRCLE
8
ROBOT_M6
10
-17.6777
20
17.6777
30
0
40
3.3000
0
CIRCLE
8
ROBOT_CB
10
-17.6777
20
17.6777
30
0
40
5.5000
0
CIRCLE
8
ROBOT_M6
10
-17.6777
20
-17.6777
30
0
40
3.3000
0
CIRCLE
8
ROBOT_CB
10
-17.6777
20
-17.6777
30
0
40
5.5000
0
CIRCLE
8
PIN_PILOT
10
25.0000
20
0.0000
30
0
40
2.9000
0
CIRCLE
8
PIN_PILOT
10
0.0000
20
25.0000
30
0
40
2.9000
0
CIRCLE
8
PIN_PILOT
10
-25.0000
20
0.0000
30
0
40
2.9000
0
CIRCLE
8
PIN_PILOT
10
-0.0000
20
-25.0000
30
0
40
2.9000
0
CIRCLE
8
GRIP_M5
10
54.0000
20
0.0000
30
0
40
2.7500
0
CIRCLE
8
DOWEL
10
65.0000
20
0.0000
30
0
40
2.0000
0
CIRCLE
8
GRIP_M5
10
-54.0000
20
0.0000
30
0
40
2.7500
0
CIRCLE
8
DOWEL
10
-65.0000
20
0.0000
30
0
40
2.0000
0
TEXT
8
NOTE
10
-66.0000
20
42.0000
30
0
40
3.5000
1
ADAPTER  DOOSAN M1013 FLANGE <-> SMC MHF2-16D2   AL6061-T6  t12  QTY1
0
TEXT
8
NOTE
10
-66.0000
20
-43.0000
30
0
40
2.6000
1
ROBOT SIDE : SPIGOT oe31.5 h7 PROTRUDE 4 (into flange oe31.5 H7) / oe20 THRU
0
TEXT
8
NOTE
10
-66.0000
20
-48.0000
30
0
40
2.6000
1
           : 4x oe6.6 THRU PCD50 @45/135/225/315deg, C'BORE oe11 DP7.5 GRIPPER SIDE
0
TEXT
8
NOTE
10
-66.0000
20
-53.0000
30
0
40
2.6000
1
GRIPPER SIDE: 2x oe5.5 THRU @X=+-54 / 2x oe4 H7 DOWEL DP6 @X=+-65.0
0
TEXT
8
NOTE
10
-66.0000
20
-58.0000
30
0
40
2.6000
1
PIN PILOT  : 4x oe5.8 THRU PCD50 @0/90/180/270deg  *** DRILL ONLY - DO NOT REAM ***
0
TEXT
8
NOTE
10
-66.0000
20
-63.0000
30
0
40
2.6000
1
             (one hole reamed to oe6 H7 on site after clocking is fixed)
0
TEXT
8
NOTE
10
-66.0000
20
-68.0000
30
0
40
2.6000
1
+X AXIS = GRIPPER LONG AXIS = JAW TRAVEL
0
TEXT
8
NOTE
10
-66.0000
20
-73.0000
30
0
40
2.6000
1
SEATING = ANNULUS oe31.5~oe63 (flange boss H=6.5).  FLATNESS 0.05.  mm
0
ENDSEC
0
EOF
